<?xml version="1.0" encoding="utf-8"?>
<svg version="1.1" id="american_football" xmlns="http://www.w3.org/2000/svg" xmlns:xlink="http://www.w3.org/1999/xlink" x="0px" y="0px"
	 viewBox="0 0 32 32" style="enable-background:new 0 0 32 32;" xml:space="preserve">
	 <path fill="#f7b527" d="M0.00987,25.29805c0.09181,2.28352,0.7345,4.01899,1.65263,5.02374 c1.65263,1.64413,5.41694,2.10084,9.73213,1.27877c2.938-0.63939,8.53857-2.19218,13.40464-7.03323 c2.47894-2.4662,4.49882-5.66312,5.78419-9.31675c1.10175-2.9229,1.56081-6.11983,1.37719-8.86005l0,0 c-0.09181-2.19218-0.64269-3.92765-1.469-4.84106c-1.65263-1.55279-5.32513-1.91815-9.73214-1.18743 c-2.938,0.63938-8.53857,2.19218-13.40464,7.03323c-2.47894,2.4662-4.49882,5.66312-5.78419,9.22541 C0.46893,19.36091-0.08194,22.55783,0.00987,25.29805z M25.53377,1.64082c-1.28538,0.18268-2.75438,0.73073-4.22338,1.27877 c-0.91813-0.73073-1.74444-1.18743-2.38713-1.46145c0.82631-0.18268,1.469-0.36536,2.11169-0.4567 c1.19356-0.18268,2.29531-0.27402,3.39707-0.27402C24.89108,0.91009,25.25833,1.27545,25.53377,1.64082z M22.32033,3.92433 c1.74444-0.63938,3.12163-1.00475,4.22338-1.09609c2.29531,3.01424,3.58069,6.94189,3.94794,10.7782 c-0.09181,0.4567-0.27544,0.91341-0.36725,1.37011c-0.45906,1.46145-1.19356,2.9229-1.92806,4.20167 C27.1864,11.23159,24.70746,6.48187,22.32033,3.92433z M2.94787,25.02403c0.18363-0.91341,0.7345-2.55754,1.74444-4.65837 c3.02982,4.65837,8.53857,8.12932,12.11926,8.86005c-2.01988,0.91341-3.94794,1.37011-5.32513,1.73547 C8.82388,29.95643,5.42681,28.58632,2.94787,25.02403z M2.12156,24.65867c0.64269-2.55754,2.2035-6.39385,4.95788-10.23016 l-1.10175-0.27402c-0.18363-0.09134-0.27544-0.27402-0.27544-0.4567c0.09181-0.18268,0.27544-0.27402,0.45906-0.27402 l0.7345,0.18268l-0.27544-0.73073c-0.09181-0.18268,0-0.36536,0.18363-0.4567c0.18362-0.09134,0.36725,0,0.45906,0.18268 l0.36725,1.00475c0.27544-0.36536,0.7345-0.91341,1.10175-1.27877l-1.00994-0.27402c-0.09181,0-0.27544-0.18268-0.18362-0.36536 s0.27544-0.27402,0.45906-0.27402l0.7345,0.18268l-0.27544-0.63939c-0.09181-0.18268,0-0.36536,0.18363-0.4567 s0.36725,0,0.45906,0.18268l0.27544,0.91341c0.27544-0.36536,0.7345-0.73073,1.00994-1.09609l0.09181-0.09134L9.55838,10.1355 c-0.18363-0.09134-0.27544-0.27402-0.27544-0.4567c0.09181-0.18268,0.27544-0.27402,0.45906-0.27402l0.7345,0.18268 l-0.09181-0.63938c-0.09181-0.18268,0-0.36536,0.18362-0.4567c0.18363-0.09134,0.36725,0,0.45906,0.18268l0.36725,1.00475 c0.55088-0.54804,1.00994-1.00475,1.469-1.27877l-0.91813-0.27402c-0.18362-0.09134-0.27544-0.27402-0.27544-0.4567 c0.09181-0.27402,0.27544-0.36536,0.55088-0.36536l0.64269,0.18268L12.5882,6.7559c-0.09181-0.18268,0-0.36536,0.18362-0.4567 c0.18363-0.09134,0.36725,0,0.45906,0.18268l0.36725,1.00475c0.45906-0.36536,0.91813-0.73073,1.28538-1.00475L14.0572,6.29919 c-0.18362-0.09134-0.27544-0.27402-0.27544-0.4567c0.18363-0.09134,0.36725-0.18268,0.64269-0.09134l0.7345,0.18268L14.88351,5.2031 c-0.09181-0.18268,0-0.36536,0.18363-0.4567c0.18363-0.09134,0.36725,0,0.45906,0.18268l0.36725,1.09609 c0.45906-0.27402,1.00994-0.63938,1.469-0.91341l-0.82631-0.18268c0.09181-0.09134,0-0.36536,0-0.54804 c0.09181-0.18268,0.27544-0.27402,0.45906-0.27402l0.7345,0.18268l-0.27544-0.73073c-0.09181-0.18268,0-0.36536,0.18362-0.4567 c0.18363-0.09134,0.36725,0,0.45906,0.18268l0.36725,1.18743c0.45906-0.27402,1.00994-0.4567,1.37719-0.73073 c2.84619-1.27877,5.60057-2.10084,7.52863-2.10084c0.09181,0,0.18363,0.09134,0.18363,0.18268s-0.09181,0.18268-0.18363,0.18268 c-1.83625,0-4.95788,0.82207-8.44676,2.55754l0.7345,0.18268c0.18363,0.09134,0.27544,0.27402,0.27544,0.4567 c-0.09181,0.18268-0.27544,0.27402-0.45906,0.27402h-0.64269l0.27544,0.73073c0.09181,0.18268,0,0.36536-0.18363,0.4567 s-0.36725,0-0.45906-0.18268l-0.36725-1.09609c-0.45906,0.27402-1.00994,0.63938-1.469,0.91341l0.91813,0.27402 c0.18363,0.09134,0.27544,0.27402,0.27544,0.4567c-0.18362,0.27402-0.36725,0.36536-0.64268,0.36536l-0.64269-0.27402 l0.27544,0.73073c0.09181,0.18268,0,0.36536-0.18363,0.4567s-0.36725,0-0.45906-0.18268l-0.36725-1.09609 c-0.64269,0.27402-1.10175,0.63938-1.65263,1.09609l0.91813,0.27402c0.18363,0.09134,0.27544,0.27402,0.27544,0.4567 c-0.09181,0.18268-0.27544,0.27402-0.45906,0.27402l-0.7345-0.18268l0.27544,0.73073c0.09181,0.18268,0,0.36536-0.18362,0.4567 c-0.18363,0.09134-0.36725,0-0.45906-0.18268L13.3227,8.58271c-0.45906,0.36536-0.91813,0.82207-1.28538,1.18743l1.00994,0.27402 c0.18363,0.09134,0.27544,0.27402,0.27544,0.4567c-0.09181,0.18268-0.27544,0.27402-0.45906,0.27402l-0.7345-0.18268 l0.27544,0.73073c0.09181,0.18268,0,0.36536-0.18363,0.4567s-0.36725,0-0.45906-0.18268l-0.45906-1.09609 c-0.09181,0.09134-0.09181,0.09134-0.18362,0.18268c-0.36725,0.36536-0.7345,0.73073-1.10175,1.09609l1.10175,0.27402 c0.18362,0.09134,0.27544,0.27402,0.27544,0.4567c-0.09181,0.18268-0.27544,0.27402-0.45906,0.27402l-0.82631,0l0.27544,0.73073 c0.09181,0.18268,0,0.36536-0.18363,0.4567s-0.36725,0-0.45906-0.18268l-0.45906-1.00475 c-0.36725,0.4567-0.82631,0.91341-1.10175,1.37011l1.00994,0.27402c0.18363,0.09134,0.27544,0.27402,0.27544,0.4567 c-0.09181,0.18268-0.27544,0.27402-0.45906,0.27402L8.273,15.0679l0.09181,0.4567c0.09181,0.18268,0,0.36536-0.18363,0.4567 c-0.18362,0.09134-0.36725,0-0.45906-0.18268l-0.27544-0.91341c-2.75438,3.74497-4.22338,7.30725-4.86607,9.86479 c0,0.09134-0.09181,0.18268-0.27544,0.18268c0,0-0.09181,0-0.09181-0.09134C2.12156,24.93269,2.02975,24.75001,2.12156,24.65867z M0.928,21.00504c0.18363-1.37011,0.64269-2.9229,1.19356-4.29301c0.18363-0.4567,0.36725-1.00475,0.64269-1.46145 c0.18363,1.27877,0.64269,2.55754,1.19356,3.74497c-0.82631,1.64413-1.469,3.10558-1.92806,4.56703 C1.6625,22.83185,1.29525,21.91845,0.928,21.00504z"></path></svg>