<?xml version="1.0" encoding="utf-8"?>
<!-- Generator: Adobe Illustrator 21.0.0, SVG Export Plug-In . SVG Version: 6.00 Build 0)  -->
<svg version="1.1" id="aussie-rules" xmlns="http://www.w3.org/2000/svg" xmlns:xlink="http://www.w3.org/1999/xlink" x="0px"
	 y="0px" viewBox="0 0 32 32" style="enable-background:new 0 0 32 32;" xml:space="preserve">
<path fill="#f7b527" d="M29.77778,2.32808c-0.09118-0.09158-0.27353-0.18317-0.36471-0.36633l0.09118,0.45791
	c-0.63824,0.27475-1.1853,0.45791-1.73236,0.64108l-0.27353-0.91582c0.45588-0.18316,1.00295-0.27475,1.45883-0.45791
	C24.12481-1.9763,15.09827,0.49643,7.89528,7.4567c-7.5677,7.50976-10.21184,17.40067-5.65298,22.16296
	c4.46768,4.57912,14.22363,2.38114,21.88251-5.12862S34.24546,7.09037,29.77778,2.32808z M2.42465,28.42908l-0.91177-0.27475
	c0.18235-0.64108,0.45589-1.19057,0.72942-1.74007l0.82059,0.36633C2.97171,27.33009,2.607,27.788,2.42465,28.42908z
	 M3.97466,24.94895l-0.82059-0.36633c0.27353-0.64108,0.63824-1.09899,0.91177-1.74007l0.82059,0.45791
	C4.43054,23.84996,4.24819,24.49104,3.97466,24.94895z M5.61585,21.65198l-0.82059-0.45791
	c0.36471-0.54949,0.72942-1.09899,1.00295-1.64849l0.82059,0.5495C6.34526,20.64457,6.07173,21.19407,5.61585,21.65198z
	 M7.71292,18.53817l-0.82059-0.45791c0.36471-0.45791,0.72942-1.00741,1.09413-1.46532l0.72942,0.64108
	C8.44234,17.62235,7.98645,18.08026,7.71292,18.53817z M17.65123,10.93683c-0.36471,0.36633-0.82059,0.27475-1.1853,0
	c-0.27353-0.18316-0.45588-0.45791-0.72942-0.73266c-0.91177,0.45791-0.91177,0.64108-0.27353,1.28215
	c0.18235,0.27475,0.36471,0.64108,0.45588,0.91582c0,0.64108-0.72942,0.91582-1.1853,0.45791
	c-0.18235-0.09158-0.36471-0.27475-0.45588-0.45791c-0.27353-0.27475-0.45589-0.36633-0.91177-0.09158
	c-0.27353,0.27475-0.27353,0.64108,0,0.91582c0.18235,0.18316,0.36471,0.27475,0.45589,0.64108
	c0.09118,0.27475,0.09118,0.73266-0.09118,1.00741c-0.18235,0.27475-0.63824,0.36633-0.91177,0.09158
	c-0.09118-0.09158-0.27353-0.18317-0.36471-0.36633c-0.72942-0.73266-0.72942-0.73266-1.36766,0.18317
	c0.18235,0.27475,0.45589,0.45791,0.72942,0.82424c0.27353,0.36633,0.36471,0.82424,0,1.19057
	c-0.36471,0.36633-0.82059,0.27475-1.1853-0.09158c-0.91177-0.91582-1.82354-1.92323-2.73531-2.83906
	c-0.36471-0.36633-0.36471-0.82424,0-1.19057c0.36471-0.27475,0.72941-0.27475,1.09412,0.09158
	c0.18235,0.18316,0.45589,0.45791,0.82059,0.82424c0.91177-0.73266,0.91177-0.73266,0.18235-1.37374
	C9.71882,11.94424,9.35411,11.57791,9.71882,11.12c0.18235-0.45791,0.82059-0.64108,1.1853-0.27475
	c0.18235,0.09158,0.27353,0.27475,0.45588,0.45791c0.27353,0.27475,0.45589,0.36633,0.91177,0.09158
	c0.27353-0.27475,0.27353-0.64108,0-0.91582c-0.18235-0.18316-0.36471-0.27475-0.45589-0.64108
	c-0.09118-0.27475-0.09118-0.73266,0.09118-1.00741c0.18235-0.27475,0.63824-0.36633,1.00295-0.09158
	c0.09118,0.09158,0.27353,0.18317,0.36471,0.27475c0.72942,0.73266,0.72942,0.73266,1.36766-0.18316
	c-0.18235-0.27475-0.45589-0.45791-0.72942-0.82424c-0.27353-0.36633-0.36471-0.82424,0-1.09899
	c0.36471-0.36633,0.82059-0.27475,1.1853,0c0.91177,0.91582,1.82354,1.92323,2.73531,2.93064
	C17.92476,10.29575,17.92476,10.66208,17.65123,10.93683z M18.01594,8.18936l-0.45589-0.82424
	c0.45589-0.36633,1.00295-0.73266,1.64119-1.09899l0.45588,0.82424C19.11006,7.4567,18.47182,7.73144,18.01594,8.18936z
	 M21.11596,6.17454L20.66007,5.3503c0.45589-0.27475,1.09413-0.64108,1.64119-0.91582l0.36471,0.82424
	C22.21008,5.53347,21.66302,5.8998,21.11596,6.17454z M24.39834,4.43448l-0.36471-0.91582
	c0.63824-0.27475,1.09412-0.45791,1.73236-0.82424l0.27353,0.91582C25.49246,3.97656,24.85422,4.15973,24.39834,4.43448z"/>
</svg>
