<?xml version="1.0" encoding="utf-8"?>
<!-- Generator: Adobe Illustrator 21.0.0, SVG Export Plug-In . SVG Version: 6.00 Build 0)  -->
<svg version="1.1" id="badminton" xmlns="http://www.w3.org/2000/svg" xmlns:xlink="http://www.w3.org/1999/xlink" x="0px" y="0px"
	 viewBox="0 0 32 32" style="enable-background:new 0 0 32 32;" xml:space="preserve">
	 <path fill="#39bb7c" d="M4.42904,31.9918c-1.65911-0.16792-3.18799-1.1686-4.0238-3.16304 c-0.74761-1.89729-0.48295-3.65578,0.97878-5.26719c0.78127-0.89661,1.33571-0.87163,2.03714-0.00141 c1.76827,1.85009,3.35594,3.59885,5.02761,5.53777c0.61742,0.68007,0.60061,1.05204-0.07564,1.67383 C7.50365,31.57123,6.18475,32.0709,4.42904,31.9918z M32,18.13862c-0.07564,1.67384-1.15515,3.02292-2.94448,3.68775 c-5.368,1.99451-10.73601,3.98901-16.10402,5.98352c-0.37383,0.07634-0.56285,0.16101-0.84426,0.24151 c-0.65105,0.06386-1.29789,0.03472-1.6465-0.44689c-1.84808-2.13321-3.70035-4.17344-5.54843-6.30667 c-0.44101-0.48577-0.3192-1.13254-0.11337-1.58917c1.94483-4.10551,3.79725-8.21517,5.74206-12.32067 c0.8191-1.73353,1.54158-3.37823,2.36068-5.11176C13.70816,0.82168,14.94726,0.03887,16.15274,0 c2.22195,0.00692,3.91462,1.48087,4.01539,3.34902c-0.02942,0.65094,0.2352,0.9424,0.87784,1.06453 c1.37769,0.24842,2.45715,0.94932,3.04095,2.37332c0.25621,0.47744,0.23099,1.03539,0.29398,1.69049 c-0.02521,0.55795,0.33601,0.76059,0.79384,0.87439c2.02032,0.37055,3.16277,1.72654,3.16272,3.77652 c-0.02942,0.65094,0.42001,0.95072,0.87364,1.15751C30.9416,14.92281,31.89924,16.27048,32,18.13862z M17.95422,19.5558 c0.97873-1.16723,1.865-2.33867,2.84366-3.5059c-2.07915,0.9313-4.22548,1.30055-6.14504,2.79811 c0.35281,0.38863,0.61737,0.68007,0.79381,0.87439C16.7697,21.17973,16.6773,21.17552,17.95422,19.5558z M13.2751,18.59958 c-0.61737-0.68007-1.05843-1.16583-1.67587-1.84591c-0.96609,0.88828-0.96609,0.88828-0.17222,1.76267 c0.35281,0.38863,0.61743,0.68007,0.88206,0.97152C12.79205,19.04372,12.98533,18.8661,13.2751,18.59958z M10.30975,18.65235 c-0.78551,0.98961-0.78972,1.0826,0.63837,2.26513c0.28983-0.26652,0.48305-0.44414,0.77287-0.71066 C11.19174,19.62392,10.84315,19.14231,10.30975,18.65235z M13.9261,22.63566c-0.44106-0.48576-0.97024-1.06864-1.4113-1.55446 c-0.28977,0.26652-0.57545,0.44-0.77281,0.71066C12.87182,23.42682,12.87182,23.42682,13.9261,22.63566z M15.83302,21.41706 c-0.61743-0.68007-1.05843-1.16583-1.67586-1.84591c-0.38644,0.3553-0.57966,0.53292-0.86948,0.79944 c0.08825,0.09713,0.08404,0.19011,0.08404,0.19011c0.16801,0.38034,0.52503,0.67593,0.7896,0.96737 C14.95933,22.30949,15.05179,22.31363,15.83302,21.41706z M12.19153,15.94174c0.70562,0.7772,1.23487,1.36015,1.94049,2.13741 c1.65072-1.69607,2.11704-3.81825,3.22174-5.72527C15.53502,13.66967,13.56084,14.32616,12.19153,15.94174z M11.30526,15.06321 c1.65499-1.78905,2.03307-4.00836,2.96554-6.20268c-1.52048,0.8633-2.495,1.93755-3.49887,3.66275 c-0.70989,1.36575-0.70989,1.36575,0.35275,2.4386C11.21707,14.96602,11.21286,15.059,11.30526,15.06321z M9.92752,16.86476 c0.38644-0.35536,0.58808-0.71895,0.78551-0.98961c-0.35281-0.38863-0.70562-0.77726-1.05843-1.16583 C8.77669,15.69472,8.86067,15.88489,9.92752,16.86476z M8.73886,18.5816C9.6167,17.5962,9.6167,17.5962,8.45324,16.70511 C7.76019,17.69887,7.75598,17.79191,8.73886,18.5816z M7.16796,18.51086c-0.21848,0.73558-0.33609,1.28934-0.5503,1.932 c0.08819,0.09713,0.17637,0.19425,0.26877,0.19846c0.5713-0.34701,0.95767-0.70231,1.33996-0.96463 C7.87358,19.28806,7.52077,18.89943,7.16796,18.51086z M9.47804,20.66484c-0.18059-0.10127-0.36123-0.2026-0.62586-0.49405 c-0.22263,0.82857-0.34024,1.38233-0.64685,2.02078c0.08819,0.09719,0.26877,0.19852,0.36123,0.20266 c0.47041-0.16519,1.03744-0.41916,1.79353-0.75782C9.91904,21.15066,9.74681,20.86336,9.47804,20.66484z M10.70028,22.304 c-0.31082,0.73144-0.52503,1.37404-0.73089,1.83067c0.08819,0.09713,0.17644,0.19431,0.26462,0.29144 c0.65521-0.15684,1.31048-0.31368,1.87751-0.56765C11.67052,23.37271,11.31771,22.98408,10.70028,22.304z M11.90988,26.27209 c0.65942-0.24982,1.22651-0.50385,1.88593-0.75368c-0.35281-0.38863-0.61743-0.68007-0.79381-0.87439 C12.15772,24.88549,11.77128,25.24085,11.90988,26.27209z M14.05206,23.94591c-0.09661,0.08878-0.09661,0.08878-0.19322,0.17762 c0.78124,1.15334,0.78124,1.15334,1.9237,0.45937c-0.35281-0.38863-0.70562-0.7772-0.97024-1.0687 C14.43429,23.68353,14.24528,23.76822,14.05206,23.94591z M15.9632,22.63426c-0.09661,0.08884-0.28983,0.26652-0.38644,0.3553 c0.86527,1.34351,0.95346,1.4407,1.91955,0.55242c-0.35281-0.38863-0.70562-0.77726-1.05843-1.16589 C16.24881,22.46078,16.15227,22.54963,15.9632,22.63426z M17.38713,21.8598c0.35702,0.29559,0.70983,0.68422,0.97445,0.97572 c0.27298,0.10547,0.54603,0.21095,0.73504,0.12625c1.88593-0.75362,3.68367-1.60449,4.88503-3.60035 C21.72186,20.19146,19.3109,20.26921,17.38713,21.8598z"></path></svg>