<?xml version="1.0" encoding="utf-8"?>
<!-- Generator: Adobe Illustrator 21.0.2, SVG Export Plug-In . SVG Version: 6.00 Build 0)  -->
<svg version="1.1" id="baseball" xmlns="http://www.w3.org/2000/svg" xmlns:xlink="http://www.w3.org/1999/xlink" x="0px" y="0px"
	 viewBox="0 0 32 32" style="enable-background:new 0 0 32 32;" xml:space="preserve">
<path fill="#705451" d="M28.5,6.1C28.5,6.1,28.5,6.1,28.5,6.1c0-0.1-0.1-0.2-0.1-0.3C28.3,5.9,28.4,5.9,28.5,6.1
	C28.4,6,28.5,6.1,28.5,6.1z M11.5,1C11.5,1,11.5,0.9,11.5,1C11.5,0.9,11.5,0.9,11.5,1c-0.1-0.1-0.1,0-0.1,0C11.4,1,11.4,1,11.5,1z
	 M13.1,0.3C14.1,0.1,15,0,16,0c4.1,0,7.8,1.5,10.6,4.1c0,0,0,0,0,0l-0.1,0l0,0.1c-0.1,0.2,0,0.3,0.5,0.6l0.3,0.2
	c0,0.1,0.1,0.1,0.1,0.2c-0.1,0-0.2-0.1-0.3,0C27,5.1,27,5.2,27,5.2c-0.1,0.2,0.1,0.3,0.4,0.5c0,0,0.1,0.1,0.1,0.1
	C27.6,5.9,27.7,6,27.7,6c0,0.1,0.1,0.2,0.2,0.3C28,6.5,28,6.6,28,6.6c-0.2-0.1-0.4-0.2-0.6-0.2c-0.1,0-0.1,0.1-0.1,0.1
	c-0.1,0.2,0.1,0.3,0.4,0.6l0.1,0.1c0.2,0.1,0.3,0.2,0.4,0.3l0,0c0,0,0,0.1,0.1,0.1c0.1,0.2,0.1,0.3,0.1,0.3c0,0,0,0.1,0,0.1
	c0,0,0,0-0.1,0c-0.2-0.1-0.6-0.2-0.8-0.1c-0.1,0-0.1,0.1-0.1,0.2c-0.1,0.2,0.1,0.4,0.6,0.6c0.1,0,0.1,0.1,0.2,0.1
	c0.1,0.1,0.2,0.1,0.3,0.1c0,0.2,0,0.3,0,0.3c0,0.1-0.1,0.2-0.1,0.3c-0.2-0.1-0.6-0.2-0.8-0.2c-0.1,0-0.1,0.1-0.1,0.1
	c-0.1,0.1,0,0.3,0.6,0.7l0.1,0.1c0.2,0.1,0.3,0.1,0.4,0.2l0,0c0,0,0,0,0,0.1c0.3,0.5,0.2,0.6,0.2,0.6c0,0-0.1,0.1-0.1,0.2
	c0,0-0.1-0.1-0.1-0.1C28.3,11,28,10.9,27.8,11c-0.1,0.1-0.2,0.2-0.2,0.2c0,0.2,0.2,0.4,0.5,0.5c0,0,0.1,0.1,0.2,0.1l0.1,0.1
	c0.2,0.2,0.4,0.3,0.6,0.3c0,0,0,0,0,0c-0.1,0.1-0.2,0.2-0.2,0.4c-0.3-0.2-0.7-0.3-0.9-0.2c-0.1,0-0.1,0.1-0.2,0.2
	c0,0.2,0.2,0.4,0.7,0.7c0.2,0.1,0.4,0.2,0.5,0.3c0,0,0,0,0,0.1c0,0.2,0,0.3,0,0.3c-0.1,0.1-0.1,0.2-0.2,0.3c-0.1,0-0.1-0.1-0.2-0.1
	c-0.4-0.2-0.9-0.2-1.1-0.1c-0.1,0.1-0.1,0.2-0.1,0.2c0,0.2,0.2,0.3,0.5,0.4c0.1,0,0.2,0.1,0.3,0.1c0.1,0.1,0.3,0.2,0.4,0.2l0,0
	c0,0.3-0.1,0.4-0.2,0.5c-0.1,0.1-0.1,0.1-0.2,0.2c0,0,0,0,0,0c-0.3-0.3-0.7-0.3-0.9-0.2c-0.1,0-0.2,0.1-0.2,0.3
	c0,0.2,0.2,0.3,0.4,0.5l0.1,0.1c0.2,0.2,0.3,0.3,0.5,0.3c0,0.2,0,0.3-0.1,0.4c-0.1,0.1-0.1,0.2-0.2,0.3c0,0-0.1-0.1-0.1-0.1
	c-0.3-0.2-0.7-0.3-0.9-0.2c-0.1,0-0.2,0.1-0.2,0.2c-0.1,0.3,0.2,0.5,0.6,0.8c0.2,0.1,0.3,0.2,0.4,0.2c0,0.1-0.1,0.2-0.2,0.2
	c-0.1,0.1-0.3,0.2-0.4,0.3c-0.2-0.1-0.5-0.2-0.7-0.1c-0.1,0-0.2,0.1-0.2,0.2c-0.1,0.2,0.1,0.4,0.4,0.7c0.1,0.1,0.2,0.2,0.3,0.2
	c0,0.3,0,0.3,0,0.3c-0.1,0-0.2,0.1-0.4,0.3c0,0,0-0.1-0.1-0.1c-0.2-0.2-0.6-0.4-0.8-0.3c-0.1,0-0.2,0.1-0.2,0.1
	c-0.2,0.3,0.2,0.7,0.4,0.9c0.1,0.1,0.2,0.2,0.3,0.3c-0.1,0.1-0.1,0.1-0.1,0.2c-0.1,0-0.3,0.1-0.5,0.3c0,0,0,0,0,0
	c-0.2-0.2-0.5-0.4-0.8-0.4c0,0,0,0,0,0c-0.1,0-0.2,0.1-0.2,0.1c-0.2,0.3,0.1,0.6,0.4,0.9c0,0,0.1,0.1,0.1,0.1c0,0,0.1,0.1,0.1,0.1
	c-0.1,0.3-0.3,0.3-0.4,0.3c-0.1,0-0.2,0.1-0.4,0.1c0,0,0-0.1-0.1-0.1c-0.2-0.4-0.6-0.5-0.8-0.5c-0.1,0-0.2,0-0.2,0.1
	c-0.2,0.2,0,0.5,0.3,0.9c0,0.1,0.1,0.1,0.1,0.2c0,0,0,0.1,0.1,0.1c-0.2,0.4-0.3,0.4-0.4,0.4c-0.1,0-0.1,0-0.2,0
	c0-0.1-0.1-0.2-0.2-0.3c-0.3-0.4-0.6-0.5-0.8-0.5c-0.1,0-0.2,0.1-0.2,0.1c-0.2,0.2,0,0.5,0.3,0.9c0.1,0.1,0.1,0.2,0.2,0.3
	C22.2,25,22.2,25,22,25c-0.2,0-0.3,0-0.6,0.1c0-0.1,0-0.2-0.1-0.2c-0.1-0.3-0.4-0.6-0.6-0.7c-0.1,0-0.2,0-0.2,0
	c-0.3,0.2-0.1,0.8,0,1c0.1,0.1,0.1,0.2,0.2,0.3c-0.3,0.2-0.3,0.2-0.3,0.2c-0.1-0.1-0.3-0.1-0.6,0c0-0.1,0-0.1,0-0.1
	c0-0.4-0.2-0.7-0.3-0.8c-0.1-0.1-0.2-0.1-0.3-0.1C19,24.7,19,25,19,25.5l0,0.2c0,0.1,0,0.2,0,0.3c-0.4,0.2-0.5,0.1-0.7,0.1
	c-0.1,0-0.2-0.1-0.3-0.1c0-0.1,0.1-0.2,0.1-0.3c0.1-0.4-0.1-0.8-0.3-0.9c-0.1-0.1-0.2-0.1-0.3,0c-0.2,0.1-0.2,0.3-0.2,0.6
	c0,0.1,0,0.2,0,0.2c0,0.1,0,0.1,0,0.2l0,0c0,0.1,0,0.2,0,0.2c-0.4,0.1-0.6,0-0.8-0.1c-0.1,0-0.2-0.1-0.3-0.1c0,0,0.1-0.1,0.1-0.1
	c0.2-0.4,0.2-0.7,0.1-0.9c-0.1-0.1-0.2-0.2-0.2-0.2c-0.3,0-0.5,0.3-0.6,0.7l0,0c-0.1,0.2-0.2,0.4-0.2,0.6c-0.1,0-0.1,0-0.1,0
	c-0.1-0.1-0.3-0.2-0.6-0.3c0.1-0.1,0.1-0.2,0.2-0.3c0.2-0.5,0.1-0.9-0.1-1.1c-0.1-0.1-0.2-0.1-0.3-0.1c-0.2,0.1-0.2,0.2-0.3,0.5
	c0,0.1-0.1,0.2-0.1,0.4c0,0.1-0.1,0.1-0.1,0.2l0,0c0,0.1-0.1,0.2-0.1,0.2c-0.5-0.1-0.7-0.2-0.8-0.4c-0.1-0.1-0.1-0.2-0.2-0.2
	c0.1-0.1,0.1-0.1,0.1-0.2c0.2-0.3,0.3-0.6,0.2-0.9c0-0.1-0.1-0.2-0.2-0.2c-0.1-0.1-0.4,0-0.8,0.6c-0.1,0.1-0.2,0.3-0.2,0.3
	c-0.3,0-0.3-0.1-0.3-0.2c-0.1-0.1-0.1-0.2-0.3-0.3c0,0,0.1-0.1,0.1-0.1c0.3-0.2,0.4-0.5,0.4-0.8c0-0.1-0.1-0.2-0.1-0.2
	c-0.2-0.1-0.5,0-0.9,0.3c-0.2,0.2-0.3,0.3-0.4,0.4c-0.2,0-0.3-0.1-0.3-0.1c0-0.2-0.1-0.3-0.3-0.5c0,0,0.1,0,0.1-0.1
	c0.4-0.2,0.5-0.6,0.5-0.8c0-0.1-0.1-0.2-0.1-0.2c-0.2-0.1-0.5,0-0.8,0.3l-0.1,0.1c-0.1,0-0.1,0.1-0.2,0.1c-0.1,0.1-0.2,0.1-0.2,0.2
	c-0.4-0.2-0.4-0.3-0.4-0.3c0-0.2,0-0.4-0.1-0.6C8.8,21.5,9.1,21.3,9,21c0-0.1-0.1-0.1-0.2-0.2c-0.2-0.1-0.5,0-0.8,0.1
	c-0.1,0.1-0.3,0.1-0.4,0.2c-0.3-0.2-0.4-0.3-0.4-0.3c0.1-0.2,0-0.3,0-0.5c0.1,0,0.1,0,0.2,0c0.4-0.1,0.6-0.3,0.7-0.4
	c0.1-0.1,0-0.2,0-0.2c-0.1-0.3-0.6-0.3-1-0.2c-0.2,0-0.3,0.1-0.4,0.1c-0.3-0.4-0.2-0.4-0.2-0.5c0.1-0.1,0.1-0.3,0.1-0.4
	c0.4,0,0.7-0.2,0.8-0.4c0.1-0.1,0.1-0.2,0-0.3c-0.1-0.2-0.4-0.3-1-0.2c-0.1,0-0.2,0-0.3,0c-0.4-0.5-0.4-0.5-0.3-0.7
	c0-0.1,0-0.1,0-0.2c0.1,0,0.2,0,0.3,0l0.1,0c0.3,0,0.6-0.1,0.7-0.2c0.1-0.1,0.1-0.2,0.1-0.2c0-0.3-0.5-0.4-0.8-0.4
	c-0.1,0-0.2,0-0.4,0c-0.1-0.4,0-0.7,0-0.9c0,0,0,0,0-0.1c0.1,0,0.1,0,0.2,0c0.3,0.1,0.7,0,0.8-0.1C7,15,7,14.9,7,14.8
	c0-0.3-0.6-0.5-0.8-0.5c-0.1,0-0.1,0-0.2,0c0-0.1,0-0.2-0.1-0.3c-0.1-0.4-0.1-0.5,0-0.7c0.1,0,0.2,0.1,0.3,0.1c0.3,0,0.6,0,0.8-0.1
	c0.1-0.1,0.1-0.2,0.1-0.2c0-0.3-0.4-0.5-0.8-0.5c-0.1,0-0.2,0-0.3,0c0,0,0,0,0-0.1c0-0.3,0-0.3,0.1-0.4c0.1-0.1,0.1-0.2,0.2-0.3
	c0.1,0,0.2,0.1,0.3,0.1c0.4,0.1,0.8-0.1,0.9-0.3c0.1-0.1,0.1-0.2,0-0.3C7.5,11.1,7.3,11,6.9,11c-0.1,0-0.1,0-0.2,0
	c-0.1,0-0.3,0-0.4,0c0-0.5,0.1-0.6,0.2-0.8c0-0.1,0.1-0.1,0.1-0.2c0.1,0,0.2,0.1,0.3,0.1c0.3,0.1,0.7,0.1,0.8,0C7.9,9.8,8,9.8,8,9.7
	c0-0.3-0.3-0.4-0.7-0.5c-0.1,0-0.2,0-0.3-0.1c0,0,0,0,0,0C7,8.7,7.1,8.6,7.3,8.5c0.1-0.1,0.2-0.2,0.3-0.4h0c0.1,0,0.2,0,0.3,0
	c0.1,0,0.2,0.1,0.3,0.1c0.2,0.1,0.4,0.1,0.4,0C8.7,8.2,8.7,8.1,8.7,8c0-0.2-0.3-0.5-0.7-0.5c-0.1,0-0.2,0-0.3,0C7.7,7.1,7.8,7,8,6.8
	C8,6.7,8.1,6.6,8.2,6.6c0.1,0,0.2,0.1,0.4,0.1c0.2,0,0.4,0.1,0.5,0.1c0.2,0,0.3-0.1,0.4-0.2c0-0.1,0.1-0.1,0-0.3
	C9.4,6.1,9.1,5.9,8.7,5.8c-0.1,0-0.2,0-0.3,0c0-0.2,0.1-0.2,0.2-0.2C8.8,5.5,9,5.4,9.2,5.1c0,0,0.1,0,0.1,0c0.1,0,0.1,0,0.2,0.1
	c0.1,0,0.1,0,0.2,0.1l0.1,0c0.3,0.1,0.5,0.1,0.6,0c0.1-0.1,0.1-0.1,0-0.2C10.3,4.9,10,4.7,9.7,4.6c-0.1,0-0.2,0-0.3-0.1
	c0.1-0.3,0.1-0.3,0.2-0.3C9.7,4.1,9.9,4,10.1,3.7c0.1,0,0.2,0,0.3,0c0.1,0,0.2,0.1,0.3,0.1C10.9,4,11,4,11.1,4c0.1,0,0.1,0,0.1,0
	c0,0,0.1-0.1,0.1-0.2c0-0.2-0.3-0.5-0.7-0.6c-0.1,0-0.1,0-0.2,0c0.1-0.2,0.2-0.2,0.4-0.3c0.1,0,0.2-0.1,0.3-0.2c0,0,0.1,0,0.1,0
	l0.1,0c0.2,0,0.3,0.1,0.4,0.1c0.1,0,0.2,0.1,0.3,0c0.1,0,0.1-0.1,0.1-0.2c0-0.2-0.4-0.4-0.7-0.5c0,0-0.1,0-0.1,0c0,0,0.1,0,0.2-0.1
	c0.1,0,0.3-0.1,0.4-0.2c0.1,0,0.2,0,0.4,0c0,0,0,0,0,0c0.1,0,0.2,0,0.3,0l0,0c0.1,0,0.1,0,0.1,0c0.1,0,0.2,0,0.3-0.1
	c0-0.1,0-0.2,0-0.2c-0.1-0.2-0.4-0.3-0.7-0.3h0c-0.1,0-0.1,0-0.2,0c0-0.1,0.1-0.1,0.2-0.2c0.1,0,0.1-0.1,0.2-0.1c0,0,0.1,0,0.1,0
	c0.1,0,0.2,0,0.3,0c0.1,0,0.3,0,0.4,0c0.2,0,0.4,0,0.4-0.1l0-0.1l0-0.1C13.6,0.4,13.4,0.4,13.1,0.3L13.1,0.3z M29.2,6.9
	C29.2,6.9,29.2,6.9,29.2,6.9C29.2,7,29.1,7,29.2,6.9c-0.2,0-0.2,0-0.3-0.1c0,0-0.1-0.1-0.2-0.1c0,0.1,0,0.1,0,0.1
	c0,0.1,0,0.2,0.1,0.5c0,0,0,0.1,0,0.1c0.1,0,0.2,0,0.3,0c0.3,0.1,0.5,0.4,0.5,0.6c0,0.1-0.1,0.2-0.2,0.2c0,0,0,0,0,0
	c-0.1,0-0.1,0-0.2-0.1c-0.1,0-0.1-0.1-0.2-0.1c0,0,0,0,0,0c0,0,0,0.1,0,0.1c0,0,0,0.1,0.1,0.4c0,0,0,0,0,0.1c0.1,0,0.2,0,0.3,0
	c0.2,0,0.4,0.3,0.4,0.4c0,0.1-0.1,0.2-0.2,0.2c-0.1,0-0.2,0-0.4,0l0,0c0,0-0.1,0-0.1,0c0,0.1-0.1,0.2-0.1,0.3c0,0.1-0.1,0.2,0.1,0.7
	c0,0,0.1,0,0.1-0.1c0.3-0.1,0.6,0,0.7,0.2c0.1,0.1,0,0.2,0,0.3c-0.1,0.1-0.2,0.1-0.3,0.1c0,0-0.1,0-0.1,0c0,0,0,0-0.1,0
	c0.1,0.3,0.1,0.5-0.1,0.7c0,0,0,0.1,0,0.1c0,0,0,0,0,0c0.3-0.1,0.5-0.1,0.7,0c0.1,0.1,0.1,0.2,0.1,0.3c0,0.2-0.2,0.3-0.4,0.4
	c-0.1,0-0.2,0.1-0.2,0.1c0,0.1-0.1,0.2-0.2,0.3c0,0,0,0.1,0.1,0.4c0.2,0,0.4,0,0.5,0.1c0.1,0.1,0.1,0.2,0.1,0.3
	c0,0.2-0.2,0.3-0.4,0.4c0,0.3,0,0.5-0.2,0.7c0,0-0.1,0.1-0.1,0.3c0,0,0.1,0,0.1,0c0.4,0,0.6,0.1,0.7,0.2c0.1,0.1,0.1,0.2,0.1,0.3
	c-0.1,0.2-0.4,0.3-0.7,0.3c-0.1,0-0.2,0-0.2,0c0,0-0.1,0-0.1,0c-0.1,0.3-0.2,0.4-0.3,0.5c-0.1,0.1-0.1,0.1-0.1,0.4c0,0,0,0,0,0
	l0.1,0c0.4,0,0.7-0.1,0.8,0.1c0,0.1,0,0.2,0,0.3c-0.1,0.2-0.3,0.3-0.7,0.4c-0.1,0-0.2,0-0.3,0c0,0.1-0.1,0.2-0.2,0.3
	c-0.1,0.1-0.1,0.2-0.2,0.5c0.1,0,0.1,0,0.2,0c0.3,0,0.6,0,0.7,0.2c0,0.1,0,0.2,0,0.3c-0.1,0.2-0.3,0.3-0.7,0.4c-0.2,0-0.3,0-0.4-0.1
	c-0.2,0.3-0.4,0.4-0.5,0.4c-0.1,0.1-0.2,0.1-0.2,0.4c0,0,0,0,0,0c0.1,0,0.2,0,0.3,0c0.4,0,0.8,0,0.8,0.3c0,0,0,0.1-0.1,0.2
	c-0.1,0.2-0.4,0.3-0.8,0.3c-0.1,0-0.3,0-0.4,0c-0.1,0.2-0.2,0.3-0.3,0.4c-0.1,0-0.2,0.1-0.2,0.4c0.1,0,0.2,0,0.2,0
	c0.2,0,0.3,0.1,0.4,0.2c0,0,0.1,0,0.2,0c0.1,0,0.1,0.2,0.1,0.3c0,0.1-0.1,0.3-0.3,0.3c-0.1,0.1-0.4,0.1-0.6,0
	c-0.1,0-0.2-0.1-0.3-0.1c-0.1,0.1-0.3,0.2-0.4,0.3c-0.1,0-0.2,0-0.3,0.4c0.1,0,0.1,0,0.2,0c0.4,0.1,0.7,0.1,0.8,0.4
	c0,0.1,0,0.2-0.1,0.3c-0.2,0.2-0.5,0.3-0.8,0.2c-0.2,0-0.3-0.1-0.5-0.2c-0.2,0.3-0.5,0.3-0.6,0.4c-0.1,0-0.2,0-0.3,0.1
	c0,0,0.1,0,0.1,0c0.4,0.1,0.7,0.1,0.8,0.4c0,0.1,0,0.2-0.1,0.3c-0.2,0.2-0.6,0.3-0.9,0.2c-0.2,0-0.3-0.1-0.5-0.2
	c-0.2,0.2-0.4,0.3-0.6,0.4c0.3,0.1,0.5,0.1,0.6,0.4c0,0.1,0,0.2-0.1,0.3c-0.2,0.2-0.5,0.3-0.8,0.2c-0.2,0-0.5-0.2-0.6-0.3
	c-0.2,0.1-0.3,0.1-0.5,0.1c-0.1,0-0.2,0-0.5,0.2c0,0,0,0,0.1,0c0.1,0,0.1,0.1,0.2,0.1c0.1,0.1,0.2,0.1,0.3,0.1
	c0.2,0.1,0.4,0.2,0.5,0.4c0,0.1,0,0.2-0.1,0.3c-0.1,0.1-0.3,0.1-0.4,0.1c-0.1,0-0.4,0-0.6-0.2c-0.2-0.1-0.4-0.3-0.5-0.5
	c-0.3,0.1-0.5,0.2-0.7,0.1c-0.1,0-0.1-0.1-0.5,0.1c0.1,0,0.1,0.1,0.2,0.1l0.1,0.1c0.4,0.3,0.7,0.4,0.6,0.7c0,0,0,0.1-0.2,0.2
	c-0.1,0-0.2,0-0.2,0c-0.3,0-0.5-0.1-0.8-0.3c-0.3-0.2-0.4-0.4-0.5-0.5c-0.3,0.1-0.6,0-0.8,0c0,0,0,0-0.1,0c0.4,0.4,0.6,0.6,0.5,0.9
	c0,0-0.1,0.1-0.2,0.1c-0.2,0-0.5-0.1-0.9-0.4c-0.2-0.1-0.3-0.3-0.4-0.5c-0.4,0-0.7-0.1-0.9-0.2c-0.1,0-0.2-0.1-0.3-0.1
	c0,0,0.1,0.1,0.1,0.1c0.5,0.5,0.6,0.9,0.4,1c-0.1,0.1-0.1,0.1-0.2,0.1c-0.2,0-0.6-0.2-0.9-0.5c-0.2-0.2-0.3-0.4-0.4-0.6
	c-0.1,0-0.3-0.1-0.4-0.2c-0.1-0.1-0.2-0.1-0.5-0.2c0,0,0,0,0,0.1c0.2,0.3,0.4,0.7,0.2,0.9c0,0.1-0.1,0.1-0.2,0.1l0,0
	c-0.2,0-0.5-0.2-0.7-0.6c-0.1-0.2-0.2-0.5-0.2-0.6c-0.6-0.1-0.8-0.4-1-0.6c0,0,0,0,0,0c0.2,0.6,0.2,0.9,0,1c-0.1,0-0.1,0.1-0.2,0
	c-0.2-0.1-0.5-0.4-0.6-0.7c-0.1-0.2-0.1-0.4-0.1-0.7c-0.3-0.1-0.4-0.3-0.4-0.4c0-0.1-0.1-0.1-0.2-0.2c0,0.1,0,0.1,0,0.2
	c0.1,0.3,0.2,0.9-0.2,1c-0.1,0-0.2,0-0.2,0c-0.2-0.1-0.4-0.4-0.4-0.8c-0.1-0.2-0.1-0.4,0-0.6c-0.2-0.1-0.4-0.2-0.4-0.5
	c0,0,0-0.1-0.2-0.2c0,0.1,0,0.1,0,0.2c0,0.4-0.2,0.8-0.5,0.8c-0.1,0-0.2,0-0.2-0.1c-0.1-0.1-0.2-0.4-0.2-0.8c0-0.2,0.1-0.4,0.1-0.5
	c-0.3-0.2-0.5-0.4-0.5-0.8c0,0,0-0.1-0.2-0.3c0,0,0,0.1,0,0.1l0,0.1c0,0.1,0,0.2-0.1,0.2c-0.1,0.3-0.1,0.5-0.3,0.6
	c-0.1,0-0.2,0-0.3-0.1c-0.2-0.2-0.3-0.5-0.2-1c0.1-0.2,0.1-0.4,0.3-0.5c-0.4-0.3-0.5-0.5-0.4-0.8c0,0,0-0.1,0-0.2l-0.1,0.1
	c-0.2,0.5-0.4,0.8-0.6,0.8c0,0,0,0-0.1,0c-0.1,0-0.1-0.1-0.2-0.2c-0.1-0.2-0.1-0.6,0.1-1c0.1-0.2,0.2-0.4,0.4-0.5
	c-0.2-0.4-0.2-0.6-0.1-0.9c0,0,0-0.1,0-0.2c0,0,0,0-0.1,0c0,0,0,0.1-0.1,0.1c-0.1,0.1-0.1,0.2-0.2,0.2c-0.4,0.6-0.6,0.8-0.8,0.7
	c0,0-0.1-0.1-0.2-0.2c-0.1-0.2,0-0.6,0.3-1c0.1-0.2,0.3-0.4,0.5-0.5c-0.3-0.4-0.3-0.6-0.3-1c0,0,0-0.1,0-0.1c0,0-0.1,0.1-0.1,0.1
	C5,17.1,5,17.2,4.9,17.3c-0.1,0.1-0.2,0.3-0.4,0.3c0,0,0,0,0,0c-0.1,0-0.2-0.1-0.2-0.2c-0.1-0.2-0.1-0.7,0.3-1
	c0.2-0.2,0.4-0.3,0.7-0.3c0-0.4,0-0.7,0.1-0.9L5,15.3c-0.4,0.3-0.6,0.5-0.8,0.4c0,0-0.1-0.1-0.1-0.2c0-0.2,0.1-0.6,0.5-1
	c0.2-0.2,0.5-0.3,0.7-0.4c-0.1-0.5-0.1-0.8,0-1c0,0-0.1,0.1-0.1,0.1c-0.5,0.4-0.7,0.5-0.8,0.5c-0.1,0-0.1,0-0.2-0.1
	c0,0-0.1-0.1-0.1-0.2c0-0.2,0.3-0.6,0.6-0.8c0.2-0.2,0.5-0.3,0.8-0.3c0-0.4,0.1-0.5,0.2-0.7c0-0.1,0.1-0.1,0.1-0.3
	c0,0-0.1,0-0.1,0.1l-0.1,0.1c-0.3,0.2-0.5,0.3-0.7,0.3c-0.1,0-0.2-0.1-0.2-0.1c-0.1-0.1-0.1-0.1-0.1-0.2c0-0.2,0.3-0.5,0.5-0.6
	c0.2-0.1,0.5-0.2,0.7-0.2c0-0.4,0.2-0.7,0.3-0.9c0-0.1,0.1-0.1,0.1-0.2l0,0c0,0-0.1,0-0.1,0.1C5.9,9.7,5.8,9.7,5.7,9.8
	C5.5,9.9,5.4,10,5.2,9.9C5.1,9.9,5.1,9.8,5,9.7c0-0.3,0.2-0.6,0.7-0.8c0.2-0.1,0.5-0.2,0.7-0.1C6.5,8.3,6.7,8.1,6.9,8
	c0,0,0.1,0,0.1-0.1C6.9,8,6.8,8,6.8,8c-0.6,0.3-0.9,0.3-1,0.1c0-0.1,0-0.1,0-0.2c0.1-0.2,0.4-0.5,0.7-0.6c0.2-0.1,0.4-0.1,0.6-0.1
	c0.1-0.4,0.2-0.6,0.4-0.8c0-0.1,0.1-0.1,0.1-0.2c-0.1,0-0.1,0-0.2,0.1L7.3,6.3C6.9,6.5,6.6,6.6,6.5,6.4c0,0-0.1-0.1-0.1-0.2
	c0-0.2,0.3-0.5,0.7-0.7c0.2-0.1,0.5-0.1,0.7-0.1C8,5.2,8.2,5.1,8.3,5c0,0,0,0-0.1,0L8.2,5c-0.6,0.2-0.8,0.2-0.9,0c0,0,0-0.1,0-0.2
	c0.1-0.2,0.4-0.4,0.8-0.5c0.3-0.1,0.5-0.1,0.7,0c0.1-0.5,0.3-0.7,0.6-0.8c0,0,0.1,0,0.1-0.1c-0.1,0-0.3,0-0.4,0.1
	C8.9,3.6,8.8,3.7,8.6,3.8C8.5,3.9,8.4,3.9,8.3,3.9c-0.1,0-0.1,0-0.1-0.1c0,0-0.1-0.1-0.1-0.2c0-0.2,0.4-0.6,0.8-0.7
	c0.4-0.1,0.7-0.1,0.9,0C9.8,2.7,9.9,2.6,10,2.5c0,0,0,0,0,0C9.7,2.6,9.5,2.7,9.4,2.7C9.1,2.8,9,2.9,8.9,2.8c0,0-0.1-0.1-0.1-0.2
	c0-0.2,0.4-0.5,1-0.7c0.3-0.1,0.6-0.1,0.9,0c0-0.1,0.1-0.2,0.2-0.3c-0.1,0-0.2,0.1-0.3,0.1c-0.2,0.1-0.3,0.1-0.4,0
	c0,0-0.1-0.1,0-0.2c0.1-0.2,0.4-0.4,0.8-0.5c0,0,0,0,0,0c0,0,0,0,0-0.1C4.6,3,0,9,0,16c0,8.8,7.2,16,16,16s16-7.2,16-16
	C32,12.6,31,9.5,29.2,6.9z"/>
</svg>
