<?xml version="1.0" encoding="utf-8"?>
<!-- Generator: Adobe Illustrator 21.0.0, SVG Export Plug-In . SVG Version: 6.00 Build 0)  -->
<svg version="1.1" id="basketball" xmlns="http://www.w3.org/2000/svg" xmlns:xlink="http://www.w3.org/1999/xlink" x="0px" y="0px"
	 viewBox="0 0 32 32" style="enable-background:new 0 0 32 32;" xml:space="preserve">
<path fill="#af814c" d="M12.10315,8.96c8.52722,1.37143,15.31232,7.31428,17.78797,14.90286
	c-1.46705,2.56-3.57593,4.66286-6.05158,6.03429c-3.11748-0.27429-4.8596-2.10286-5.59312-5.94286
	c-1.55874-7.58857-6.32665-8.77714-9.26075-8.77714c0.18338-2.19429,0.91691-4.29714,1.83381-6.30857
	C11.18625,8.86857,11.73639,8.86857,12.10315,8.96 M7.61031,16.73143c-2.20057,0.27428-3.66762,1.18857-4.49284,2.56
	c-1.19198,1.92-0.73352,4.48-0.36676,5.66857c2.20057,3.2,5.59312,5.57714,9.62751,6.49143
	c-3.02579-3.65714-4.67622-8.50286-4.67622-13.80571C7.67188,17.39062,7.64599,17.02814,7.61031,16.73143 M10.08596,7.49714
	c0.64183-1.09714,1.28367-2.19429,2.10888-3.2C10.26934,3.56571,9.7192,2.28571,9.7192,1.18857
	C5.7765,2.83429,2.75072,5.94286,1.10029,9.78286C3.57593,8.32,6.41834,7.49714,9.53582,7.49714
	C9.7192,7.49714,9.90258,7.49714,10.08596,7.49714 M7.702,15.26857c0.27507-2.28571,0.91691-4.48,1.83381-6.49143
	c-3.57593,0-6.60172,1.09714-8.98567,3.10857C0.18338,13.16571,0,14.62857,0,16c0,2.01143,0.36676,4.02286,1.10029,5.76
	c-0.09169-1.09715,0.18338-2.19429,0.82521-3.2C2.9341,16.82286,4.95129,15.72571,7.702,15.26857 M13.11175,3.2
	c1.10029-1.18857,2.20057-2.19429,3.48424-3.2c-0.27507,0-0.45845,0-0.82521,0c-3.11748,0-4.95129,0.82286-4.95129,0.82286
	C11.00286,1.00571,10.81948,2.56,13.11175,3.2 M28.88252,6.58286L28.88252,6.58286
	c-3.02579-3.65714-7.88539-1.82857-7.88539-1.82857c-1.28367,0.45714-3.66762,0.45714-7.33524-0.18286
	c-0.82521,1.00571-1.46705,2.01143-2.10888,3.01714c0.27507,0,0.45845,0.09143,0.82522,0.09143
	c6.14327,0.91429,11.55301,4.11429,15.22063,8.96c1.28367,1.73714,2.29226,3.56571,3.11748,5.48571
	C31.54155,20.20572,32,18.10286,32,15.81714C32,12.52571,30.80802,9.32571,28.88252,6.58286 M20.44699,3.56571
	c1.10029-0.45714,3.02579-0.91429,5.04298-0.45714C23.56447,1.64571,21.2722,0.64,18.79656,0.18286
	c-1.46705,0.91429-2.84241,2.01143-4.12607,3.2C18.24642,4.11429,19.71347,3.93143,20.44699,3.56571 M16.96275,24.32
	c-1.28367-6.58286-5.31805-7.68-8.06877-7.68c0,0.36571,0,0.82286,0,1.09714c0,5.48571,2.01719,10.51429,5.40974,14.17143
	C14.76218,32,15.31232,32,15.95415,32c2.10888,0,4.12607-0.36572,5.95989-1.09714
	C19.25501,29.98857,17.60458,27.79428,16.96275,24.32"/>
</svg>
