<?xml version="1.0" encoding="utf-8"?>
<!-- Generator: Adobe Illustrator 21.0.0, SVG Export Plug-In . SVG Version: 6.00 Build 0)  -->
<svg version="1.1" id="american_football" xmlns="http://www.w3.org/2000/svg" xmlns:xlink="http://www.w3.org/1999/xlink" x="0px" y="0px"
	 viewBox="0 0 32 32" style="enable-background:new 0 0 32 32;" xml:space="preserve"><path d="M26.27277,3.74017C29.77173,6.67523,32,11.07574,32,16c0,2.91046-0.78931,5.63123-2.14734,7.98248 c0.1687-2.12067-0.13147-4.32574-0.94153-6.49615c-1.54199-4.12848-4.65845-7.66577-8.27319-9.50781 C22.09644,6.27728,23.98181,4.8775,26.27277,3.74017z M8.99188,16.21332c1.9527,0.10101,3.97406-0.15344,6.09668-0.76587 c1.06055-5.79437,4.20496-10.16412,9.35443-13.02032c-1.56067-0.97296-3.29248-1.69592-5.15143-2.08484 C12.24847,2.75275,8.1839,10.30267,8.99188,16.21332z M19.85962,21.91632c-0.87079-1.81451-2.13165-3.32159-3.84869-4.66931 c-2.16486,0.66113-4.24054,1.01276-6.24188,1.01276c-3.39825,0-6.59863-0.9765-9.73584-2.91693C0.02423,15.5625,0,15.77814,0,16 c0,1.60791,0.2431,3.15802,0.68439,4.62207C7.75903,25.55768,13.56293,25.95148,19.85962,21.91632z M23.42102,30.16791 c1.24567-0.65387,2.38721-1.47205,3.41223-2.41754c1.73834-3.66394,1.08173-7.21082,0.20386-9.56482 c-1.3941-3.73352-4.34509-7.02112-7.61487-8.57568c-1.1142,1.72968-1.88397,3.71106-2.32104,5.95563 C21.49371,18.94885,23.37463,23.28357,23.42102,30.16791z M20.59564,23.8208c-3.06757,1.89819-6.07349,2.86084-9.1391,2.86084 c-3.02429,0-6.10809-0.93317-9.36664-2.7937C4.84106,28.72845,10.0343,32,16,32c1.90393,0,3.72192-0.34985,5.41559-0.96002 C21.45996,28.18542,21.20642,25.82678,20.59564,23.8208z M6.94281,15.97168c-0.54205-5.64581,2.52057-12.37079,8.3175-15.93433 C7.74213,0.38202,1.58539,5.89941,0.27191,13.12384C2.44916,14.59747,4.65466,15.54468,6.94281,15.97168z"></path></svg>