<?xml version="1.0" encoding="utf-8"?>
<!-- Generator: Adobe Illustrator 21.0.0, SVG Export Plug-In . SVG Version: 6.00 Build 0)  -->
<svg version="1.1" id="boxing" xmlns="http://www.w3.org/2000/svg" xmlns:xlink="http://www.w3.org/1999/xlink" x="0px" y="0px"
	 viewBox="0 0 26 32" style="enable-background:new 0 0 26 32;" xml:space="preserve">
<path fill="#cec43b" d="M22.36205,1.40218C20.59064,0.6671,18.726,0.0239,16.86135,0.0239
	C13.505-0.06798,11.1742,0.11579,7.81784,0.39144C5.67351,0.48333,4.74118,1.67784,4.74118,3.69932
	c0,1.10262,0.18646,2.29713,0.46616,3.30787c0.74586,2.11336,1.67818,4.22673,3.91575,5.05369
	c4.00898,1.47017,6.99241,1.2864,10.81492-0.18377c1.67818-0.6432,2.79696-1.92959,3.82252-3.30787
	c-0.2797,1.2864-0.93232,2.29713-1.86464,3.21599c-2.98343,2.66467-10.62845,2.84845-10.62845,2.84845
	c0.29736,0.19736,0.71173,1.00434,0.89923,2.44184c0.125,0.9375,0.03309,2.15243-0.71276,2.9794c0-0.36754,0-0.6432,0-0.91885
	c0.2797-2.38902-0.93232-4.50238-3.07666-5.42124c-2.05111-0.91885-3.54282-2.29713-4.28867-4.4105
	C3.6224,8.01793,3.02082,5.00227,3.15624,5.44514S2.96978,4.61817,2.78331,4.61817c-0.2797-0.09189-0.65262,0.09189-0.83909,0.27566
	C1.57129,5.16948,1.38483,5.44514,1.2916,5.81268C1.0119,6.82342,0.73221,7.92604,0.54574,9.02867
	c-0.46616,3.95107-0.74586,5.23746-0.37293,7.5346c0.2797,2.66467,1.86464,4.31861,3.54282,6.06443
	c0.65262,0.6432,1.39848,1.2864,2.23757,1.47017c0,0.09188,0,0.27566,0,0.36754c0,2.84845,0.09323,3.21599,0,6.06443
	C5.9532,31.81623,6.2329,32,6.97875,32c2.3308-0.09188,4.6616,0,7.17887,0l0,0c2.42403,0,4.84807,0,7.2721,0
	c0.74586,0,1.02555-0.18377,1.02555-1.37828c0-2.84845,0-3.30787,0-6.2482c0-0.09189,0-0.18377,0-0.27566
	c0.18647-0.09189,0.03448,0.09604,0.37293-0.27566s1.67818-3.30787,2.14434-5.05369
	c1.11879-3.95107,1.02555-8.08591,1.02555-12.22075C25.90487,4.15874,24.69285,2.32104,22.36205,1.40218z M14.81025,27.86516
	l1.49171,1.47017c0.18646,0.18377,0.18646,0.45943,0,0.73508c-0.18646,0.27565-0.46616,0.18377-0.74586,0l-1.39848-1.47017
	l-1.49171,1.47017c-0.18646,0.18377-0.46616,0.18377-0.74586,0c-0.18646-0.18377-0.18646-0.45943,0-0.73508l1.49171-1.47017
	l-1.49171-1.47017c-0.18646-0.18377-0.18646-0.45943,0-0.73508c0.18646-0.18377,0.46616-0.18377,0.74586,0l1.49171,1.47017
	l1.49171-1.47017c0.18646-0.18377,0.46616-0.18377,0.74586,0c0.18646,0.18377,0.18646,0.45943,0,0.73508"/>
</svg>
