<?xml version="1.0" encoding="utf-8"?>
<!-- Generator: Adobe Illustrator 21.0.0, SVG Export Plug-In . SVG Version: 6.00 Build 0)  -->
<svg version="1.1" id="chess" xmlns="http://www.w3.org/2000/svg" xmlns:xlink="http://www.w3.org/1999/xlink" x="0px" y="0px"
	 viewBox="0 0 24 32" style="enable-background:new 0 0 24 32;" xml:space="preserve">
<path d="M20.98834,26h-1.9607L18.869,22.29749h2.10739c-2.01578-6.55273-8.06307-10.01111-8.06307-10.01111
	h4.85617c0.45811,1.0011,1.55761,1.72919,2.932,1.72919c1.8325,0,3.2985-1.45618,3.2985-3.27637s-1.28272-3.09436-3.2985-3.64038
	c-1.37439-0.45508-2.199-1.27417-2.84039-2.36627c-0.64139-1.0011-2.01572-2.63928-3.665-2.63928h-2.38228V0
	c-12.91918,4.73254-9.0709,21.5694-8.88768,22.29749h1.55767L4.32518,26H2.99787C1.34902,26,0,27.35004,0,29
	c0,1.65002,1.34902,3,2.99787,3h17.99047c1.64886,0,2.99787-1.34998,2.99787-3C23.98622,27.35004,22.6372,26,20.98834,26z"/>
</svg>
