<?xml version="1.0" encoding="utf-8"?>
<!-- Generator: Adobe Illustrator 21.0.0, SVG Export Plug-In . SVG Version: 6.00 Build 0)  -->
<svg version="1.1" id="general" xmlns="http://www.w3.org/2000/svg" xmlns:xlink="http://www.w3.org/1999/xlink" x="0px" y="0px"
	 viewBox="0 0 32 32" style="enable-background:new 0 0 32 32;" xml:space="preserve"><path fill="#cec43b" d="M11.6,3.7L9.4,0h13.3l-2.3,3.7H11.6z M6.6,22.6c0,5.19148,4.20852,9.4,9.4,9.4s9.4-4.20852,9.4-9.4 s-4.20852-9.4-9.4-9.4S6.6,17.40852,6.6,22.6z M24.1,15.4L32,4.6l-3-1.7l-7.7,10.3C22.5,13.7,23.3,14.5,24.1,15.4z M19.9,12.4 L27.6,2l-3-1.7l-8.3,11.4C17.6,11.8,18.8,12,19.9,12.4z M15.6,11.7L7.4,0.3L4.4,2l7.7,10.5C13.2,12,14.4,11.8,15.6,11.7z M10.5,13.2 L2.9,2.8L0,4.5l7.9,10.8C8.7,14.5,9.5,13.7,10.5,13.2z"></path></svg>