<?xml version="1.0" encoding="utf-8"?>
<!-- Generator: Adobe Illustrator 21.0.0, SVG Export Plug-In . SVG Version: 6.00 Build 0)  -->
<svg version="1.1" id="cricket" xmlns="http://www.w3.org/2000/svg" xmlns:xlink="http://www.w3.org/1999/xlink" x="0px" y="0px"
	 viewBox="0 0 32 32" style="enable-background:new 0 0 32 32;" xml:space="preserve">
	 <path fill="#af814c" d="M30.99265,21.48571C31.63449,19.74857,32.00125,17.92,32.00125,16c0-8.77714-7.24355-16-16.04585-16 C9.17031,0,3.30211,4.29714,1.00985,10.33143C5.96114,18.46857,20.53993,23.04,30.99265,21.48571z M3.94394,10.60571 c-0.09169,0.09143-0.18338,0.09143-0.27507,0.09143c-0.09169,0-0.27507-0.09143-0.36676-0.18286 C3.02704,10.14857,2.66028,9.78286,2.3852,9.41714c-0.18338-0.18286-0.09169-0.64,0.09169-0.73143 c0.18338-0.18286,0.64183-0.18286,0.73352,0.09143c0.27507,0.36571,0.64183,0.73143,0.91691,1.00571 C4.21902,9.96571,4.21902,10.42286,3.94394,10.60571z M7.15311,13.25714C7.06142,13.34857,6.96973,13.44,6.78635,13.44 c-0.09169,0-0.18338,0-0.27507-0.09143c-0.36676-0.27429-0.82522-0.64-1.10029-0.91429 c-0.18338-0.18286-0.18338-0.45714-0.09169-0.73143c0.18338-0.27429,0.45845-0.27429,0.73352-0.09143 c0.27507,0.27429,0.73352,0.64,1.10029,0.82286C7.33649,12.70857,7.33649,12.98286,7.15311,13.25714z M10.72904,15.36 c-0.09169,0.18286-0.27507,0.27428-0.45845,0.27428c-0.09169,0-0.18338,0-0.18338-0.09143 C9.72045,15.36,9.262,15.08571,8.89523,14.81143C8.71185,14.72,8.62016,14.35428,8.71185,14.08 c0.09169-0.27429,0.45845-0.27429,0.73352-0.18286c0.36676,0.18286,0.82522,0.45714,1.19198,0.73143 C10.82073,14.90286,10.91243,15.17714,10.72904,15.36z M14.67174,17.09714c-0.09169,0.18286-0.27507,0.27429-0.45845,0.27429 c-0.09169,0-0.09169,0-0.18338,0c-0.36676-0.18286-0.91691-0.27429-1.28367-0.45714 c-0.27507-0.09143-0.36676-0.36571-0.27507-0.73143c0.09169-0.27428,0.36676-0.36571,0.73352-0.27428 c0.36676,0.18286,0.82521,0.27428,1.28367,0.45714C14.67174,16.45714,14.76343,16.82286,14.67174,17.09714z M18.61443,18.28572 c-0.09169,0.18286-0.27507,0.36571-0.45845,0.36571h-0.09169c-0.45845-0.09143-0.9169-0.18286-1.37536-0.36571 c-0.27507-0.09143-0.36676-0.36572-0.36676-0.73143c0.09169-0.27429,0.36676-0.36572,0.73352-0.36572 c0.36676,0.09143,0.91691,0.27429,1.28367,0.36572C18.52274,17.73714,18.79781,18.01143,18.61443,18.28572z M22.74051,19.10857 c0,0.27428-0.27507,0.36571-0.45845,0.36571h-0.09169c-0.45845-0.09143-0.91691-0.18286-1.37536-0.18286 c-0.27507-0.09143-0.45845-0.27429-0.36676-0.64c0.09169-0.27428,0.27507-0.45714,0.64183-0.36571 c0.45845,0.09143,0.91691,0.18286,1.37536,0.18286C22.64882,18.56,22.8322,18.83429,22.74051,19.10857z M26.95827,19.47429 c0,0.27428-0.18338,0.45714-0.45845,0.45714l0,0c-0.45845,0-0.91691-0.09143-1.37536-0.09143 c-0.27507,0-0.45845-0.27428-0.45845-0.64c0-0.27429,0.27507-0.45714,0.64183-0.45714c0.45845,0,0.91691,0.09143,1.37536,0.09143 C26.77489,19.01714,26.95827,19.2,26.95827,19.47429z M31.17604,19.38286c0,0.27428-0.18338,0.45714-0.45845,0.64 c-0.45845,0-0.91691,0.09143-1.37536,0.09143l0,0c-0.27507,0-0.45845-0.18286-0.45845-0.45714S29.06716,19.2,29.34223,19.2 c0.45845,0,0.91691,0,1.37536-0.09143C30.99265,18.92571,31.17604,19.10857,31.17604,19.38286z M0.00125,15.17714 c0,0.27429,0,0.45714,0,0.82286c0,8.77714,7.24355,16,16.04585,16c6.32665,0,11.82808-3.65714,14.39542-8.96 c-1.10029,0.09143-2.20057,0.18286-3.39255,0.18286c-9.81089,0-21.54728-4.20572-26.59026-11.06286 c-0.18338,0.82286-0.36676,1.64571-0.36676,2.37714l0,0c0.09169-0.27429,0.45845-0.18286,0.64183,0 c0.27507,0.36571,0.64183,0.73143,0.91691,1.00571c0.18338,0.18286,0.18338,0.45714,0,0.73143 c-0.09169,0.09143-0.18338,0.09143-0.27507,0.09143s-0.36676-0.18286-0.45845-0.27429 C0.4597,15.90857,0.18463,15.63429,0.00125,15.17714z M26.40813,25.32571c0-0.27428,0.18338-0.45714,0.45845-0.45714 c0.45845,0,0.9169,0,1.37536-0.09143c0.27507-0.09143,0.45845,0.18286,0.64183,0.45714c0,0.27429-0.18338,0.45714-0.45845,0.64 c-0.45845,0-0.91691,0.09143-1.37536,0.09143l0,0C26.59151,25.78286,26.40813,25.6,26.40813,25.32571z M22.19036,25.14286 c0-0.27428,0.27507-0.45714,0.64183-0.45714c0.45845,0,0.9169,0.09143,1.37536,0.09143c0.27507,0,0.45845,0.27428,0.45845,0.64 c0,0.27428-0.18338,0.45714-0.45845,0.45714l0,0c-0.45845,0-0.9169-0.09143-1.37536-0.09143 C22.28205,25.6,22.09867,25.41714,22.19036,25.14286z M17.9726,24.50286c0.09169-0.27429,0.27507-0.45714,0.64183-0.36572 c0.45845,0.09143,0.9169,0.18286,1.37536,0.18286c0.27507,0,0.45845,0.27429,0.36676,0.64 c0,0.27428-0.27507,0.36571-0.45845,0.36571h-0.09169c-0.45845-0.09143-0.91691-0.18286-1.37536-0.18286 C18.06429,24.96,17.9726,24.68571,17.9726,24.50286z M13.93821,23.40571C14.0299,23.13143,14.30498,23.04,14.67174,23.04 c0.36676,0.09143,0.91691,0.27428,1.28367,0.36571c0.27507,0.09143,0.36676,0.36572,0.36676,0.64 c-0.09169,0.27428-0.36676,0.45714-0.64183,0.45714h-0.09169c-0.45845-0.09143-0.91691-0.18286-1.37536-0.36572 C13.93821,24.04571,13.84652,23.68,13.93821,23.40571z M9.90383,21.94286c0.09169-0.27429,0.36676-0.36572,0.73352-0.27429 c0.36676,0.18286,0.82522,0.27429,1.28367,0.45714c0.27507,0.09143,0.36676,0.36571,0.27507,0.73143 c-0.09169,0.18286-0.27507,0.27428-0.45845,0.27428c-0.09169,0-0.09169,0-0.18338,0 c-0.36676-0.18286-0.91691-0.27428-1.28367-0.45714C9.90383,22.49143,9.81214,22.21714,9.90383,21.94286z M6.23621,20.02286 C6.3279,19.74857,6.69466,19.74857,6.96973,19.84c0.36676,0.18286,0.82521,0.45714,1.19198,0.73143 c0.27507,0.09143,0.36676,0.45714,0.18338,0.73143c-0.09169,0.18286-0.18338,0.27428-0.36676,0.27428 c-0.09169,0-0.18338,0-0.18338-0.09143c-0.36676-0.18286-0.82521-0.45714-1.19198-0.73143 C6.14452,20.57143,6.14452,20.29714,6.23621,20.02286z M2.84366,17.46286C3.02704,17.28,3.30211,17.28,3.57718,17.37143 c0.27507,0.27428,0.73352,0.64,1.10029,0.82285c0.18338,0.18286,0.27507,0.45714,0.09169,0.73143 c-0.09169,0.09143-0.27507,0.18286-0.36676,0.18286s-0.18338,0-0.27507-0.09143c-0.36676-0.27428-0.82521-0.64-1.10029-0.91429 C2.75197,18.10286,2.56859,17.73714,2.84366,17.46286z"></path></svg>