<?xml version="1.0" encoding="utf-8"?>
<svg version="1.1" id="cycling" xmlns="http://www.w3.org/2000/svg" xmlns:xlink="http://www.w3.org/1999/xlink" x="0px" y="0px"
	 viewBox="0 0 32 32" style="enable-background:new 0 0 32 32;" xml:space="preserve"><path class="svgimg" d="M3.3373,3.55556C3.5177,4.19373,3.78829,4.74074,4.05888,5.28775 c0.27059,0.45584,0.54118,1.09402,0.72158,1.54986c0.45099,0.72934,0.72158,1.36752,1.08237,1.91453 C6.04322,9.11681,6.31382,9.66382,6.6746,9.93732c0.0902,0.09117,0.54118,0.09117,0.72158,0.09117 C7.03539,9.11681,6.7648,8.20513,6.49421,7.29345c-0.1804-0.82051-0.54118-1.73219-0.81178-2.64387c0,0,0,0,0-0.09117 c-0.0902-0.63818-0.27059-1.27635-0.36079-2.0057c-0.0902-0.72934,0.0902-1.09402,0.90197-1.27635 c0.90197-0.2735,1.80395-0.72934,2.79612-0.91168C9.83151,0.18234,10.64329,0.18234,11.45506,0 c0.0902,0.63818,0.27059,1.18519,0.36079,1.82336c0.0902,0.82051,0.18039,1.73219,0.27059,2.46154 c0.0902,1.36752,0.27059,2.73504,0.36079,4.10256c0,0.2735,0.1804,0.63818,0.27059,0.82051 c0.0902,0.09117,0.27059,0.18234,0.36079,0.18234c0.0902,0,0.18039-0.18234,0.18039-0.2735 c0.0902-0.82051,0.1804-1.73219,0.36079-2.55271c0.18039-1.18519,0.36079-2.2792,0.63138-3.46439c0-0.2735,0-0.63818,0.0902-0.91168 c0.0902-0.72934,0.1804-1.27635,0.27059-2.09686c0.36079,0.09117,1.26276,0.2735,1.35296,0.2735 c1.62355,0.09117,2.97651,0.72934,4.41967,1.36752c0.36079,0.18234,0.45099,0.45584,0.27059,0.91168 c-0.1804,0.2735-0.27059,0.63818-0.36079,0.91168c-0.1804,0.82051-0.36079,1.54986-0.63138,2.2792 c-0.0902,0.45584-0.27059,0.91168-0.36079,1.36752c-0.1804,0.82051-0.45099,1.45869-0.72158,2.2792 c-0.0902,0.18234-0.1804,0.36467-0.36079,0.63818c0.1804,0.09117,0.36079,0.18234,0.72158,0.27351 c0.63138-0.91168,1.17256-1.91453,1.71375-2.91738c0.54118-1.00285,1.08237-2.0057,1.71375-2.91738 c0.0902-0.2735,0.27059-0.63818,0.36079-1.00285c0.81178,1.18518,1.44316,2.2792,1.98434,3.46439 c0.36079,1.27635,0.90197,2.55271,0.99217,4.0114c0,0.36467,0.1804,0.82051,0.27059,1.18519 c0.1804,1.09402-0.72158,1.91453-1.71375,1.82336c-0.81178,0-1.44316-0.2735-2.25493-0.63818 c-0.90197-0.36467-1.80395-0.72935-2.79612-0.09117h-0.0902c-0.99217,0.09117-1.89415,0.18234-2.88632,0.36467 c-1.62355,0.2735-3.15691,0.2735-4.87066,0.2735c-0.99217-0.09117-2.07454-0.18234-3.06671-0.36467 s-1.98434-0.36467-2.88632-0.45584c-0.36079,0-0.90197,0.18234-1.26276,0.27351c-0.36079,0.09117-0.90197,0.2735-1.26276,0.45584 c-0.72158,0.36467-2.34513,0-2.79612-0.63818C0,13.1282,0,12.94587,0,12.76353c0.0902-0.82051,0.18039-1.45869,0.27059-2.2792 c0.0902-0.72935,0.18039-1.36752,0.36079-2.18804c0.36079-0.45584,0.54118-0.91168,0.72158-1.45869 c0.18039-0.36467,0.45099-0.91168,0.72158-1.36752c0.36079-0.63818,0.72158-1.27635,1.08237-1.91453 C3.2471,3.55556,3.2471,3.55556,3.3373,3.55556z M21.64737,14.95157c-0.72158-0.54701-1.62355-0.27351-2.52552-0.18234 s-1.80395,0.45584-2.79612,0.45584c-2.07454,0.09117-4.23928,0-6.40401,0c-0.18039,0-0.27059-0.09117-0.45099-0.09117 c-0.90197-0.2735-1.80395-0.54701-2.70592-0.63818c-0.90197-0.18234-1.80395-0.18234-2.70592,0.2735 c-0.45099,0.18234-0.81178,0.45584-0.63138,0.91168c0.0902,0.27351,0.27059,0.72935,0.27059,1.00285 c0,0.91168,0.72158,1.27635,1.17257,1.45869c1.08237,0.63818,2.16474,1.18518,3.3373,1.36752 c0.36079,0,0.90197,0.18233,1.26276,0.2735c0.63138,0.09117,1.17257,0.18233,1.80395,0.2735 c0.0902,0,0.36079-0.18233,0.36079-0.2735c0.1804-0.45584,0.27059-0.91168,0.36079-1.36752 c0.1804-0.45584,0.54118-0.63818,0.90197-0.63818c0.45099,0,0.90197,0.18234,1.08237,0.63818 c0.1804,0.63818,0.27059,1.09402,0.36079,1.73219c0.27059,0,0.45099,0,0.63138,0c0.63138-0.09117,1.17257-0.18233,1.80395-0.2735 c0.63138-0.09117,1.08237-0.18233,1.71375-0.36467c0.27059-0.09117,0.72158-0.18233,0.99217-0.36467 c0.63138-0.2735,1.35296-0.54701,1.80395-0.91168c0.45099-0.2735,0.99217-0.72935,1.17257-1.18518 c0.1804-0.63818,0.1804-1.27635,0.27059-2.0057C22.45914,14.95157,22.00816,14.95157,21.64737,14.95157z M24.08269,15.49857 c-0.0902,0-0.1804,0.18233-0.1804,0.2735c0,1.45869,0,2.91738-0.72158,4.2849c-0.27059,0.45584-0.54119,1.00285-0.90197,1.18518 c-0.45099,0.09117-0.72158,0.45584-0.72158,0.72935c-0.1804,1.00285-0.63138,1.91453-1.08237,2.82621 c-0.54119,0.72935-1.08237,1.54986-1.80395,2.37037c-0.81178,0.91168-1.71375,1.64103-2.70592,2.09686 c-0.90197,0.54701-1.80395,1.00285-2.79612,0.91168c-0.54118,0-1.17257-0.09117-1.62355-0.2735 c-0.72158-0.18234-1.44316-0.45584-1.89415-0.82051c-0.90197-0.54701-1.71375-1.36752-2.52553-2.18803 s-1.44316-1.73219-1.80395-2.82621c-0.27059-0.82051-0.45099-1.45869-0.72158-2.18803 c-0.0902-0.27351-0.36079-0.63818-0.72158-0.63818c-0.18039,0-0.36079-0.18233-0.45099-0.36467 c-0.54118-1.09402-0.99217-2.2792-0.99217-3.55556c0-0.45584,0-0.91168,0-1.36752c0-0.18234,0-0.36467-0.0902-0.36467 c-0.54118-0.18233-1.08237-0.45584-1.71375-0.2735c0,0.72935-0.0902,1.54986,0,2.37037 c0.0902,0.63818,0.27059,1.45869,0.45099,2.2792c0.18039,0.91168,0.45099,1.73219,1.17257,2.37037 c0.54118,0.54701,0.63138,1.18518,0.99217,1.82336s0.54118,1.27635,0.81178,1.73219 c0.27059,0.63818,0.81178,1.27635,1.17257,1.73219c1.08237,1.36752,2.43533,2.37037,3.87849,3.28205 c0.54118,0.36467,0.99217,0.54701,1.62355,0.72934C11.45506,31.81766,12.35704,32,13.16881,32 c0.72158,0,1.35296-0.18234,2.07454-0.45584c0.99217-0.36467,1.89415-0.82051,2.70592-1.45869 c0.99217-0.82051,2.07454-1.73219,2.79612-2.82621c0.72158-1.00285,1.35296-1.91453,1.80395-2.91738 c0.27059-0.63818,0.36079-1.27635,0.99217-1.91453c1.08237-1.00285,1.53335-2.46154,1.71375-3.92023 c0-0.2735,0-0.45584,0.0902-0.63818c0.36079-0.91168,0.1804-1.82336,0.1804-2.82621 C24.80427,15.1339,24.35329,15.22507,24.08269,15.49857z"></path></svg>