<?xml version="1.0" encoding="utf-8"?>
<!-- Generator: Adobe Illustrator 21.0.0, SVG Export Plug-In . SVG Version: 6.00 Build 0)  -->
<svg version="1.1" id="darts" xmlns="http://www.w3.org/2000/svg" xmlns:xlink="http://www.w3.org/1999/xlink" x="0px" y="0px"
	 viewBox="0 0 32 32" style="enable-background:new 0 0 32 32;" xml:space="preserve">
<path fill="#641ecf" d="M16,0C7.22284,0,0,7.22284,0,16c0,8.7771,7.22284,16,16,16s16-7.2229,16-16
	C32,7.22284,24.86859,0,16,0z M27.54706,8.09937c1.0799,1.5733,1.84082,3.37793,2.20471,5.3222l-1.96472,0.36835
	c-0.31201-1.66382-0.9646-3.21063-1.89081-4.56104L27.54706,8.09937z M18.57843,2.24823
	c1.94427,0.36389,3.7489,1.12482,5.3222,2.20471l-1.12769,1.64813c-1.3468-0.92499-2.89349-1.57666-4.56281-1.88849
	L18.57843,2.24823z M13.42157,2.24823l0.36884,1.9671c-1.66046,0.31476-3.20477,0.9715-4.55322,1.90057L8.09937,4.45294
	C9.67267,3.37305,11.47729,2.61212,13.42157,2.24823z M4.45294,8.09937l1.66296,1.13782
	c-0.92908,1.34845-1.58582,2.89276-1.90057,4.55322l-1.9671-0.36884C2.61212,11.47729,3.37305,9.67267,4.45294,8.09937z
	 M4.45294,23.90063c-1.0799-1.5733-1.84082-3.37793-2.20471-5.3222l1.9671-0.36884c0.31476,1.66052,0.9715,3.20471,1.90063,4.55322
	L4.45294,23.90063z M13.42157,29.75177c-1.94427-0.36389-3.74884-1.12476-5.3222-2.20471l1.13782-1.66296
	c1.34845,0.92908,2.89276,1.58582,4.55322,1.90057L13.42157,29.75177z M18.57843,29.75177l-0.36884-1.9671
	c1.66046-0.31476,3.20477-0.9715,4.55322-1.90057l1.13782,1.66296C22.32727,28.62701,20.52271,29.38788,18.57843,29.75177z
	 M17.19965,17.06903c-0.10175,0.1485-0.23029,0.27704-0.37885,0.37885l4.92438,7.19714
	c-1.1441,0.78528-2.45636,1.33856-3.87018,1.60321l-1.60736-8.57263C16.1806,17.69183,16.09167,17.70258,16,17.70258
	s-0.1806-0.01074-0.26764-0.02698L14.125,26.24823c-1.41382-0.26465-2.72607-0.81793-3.87018-1.60321l4.92438-7.19714
	c-0.14856-0.10181-0.2771-0.23035-0.37885-0.37885l-7.19714,4.92438C6.81793,20.8493,6.26459,19.53705,6,18.12317l8.57263-1.6073
	c-0.01624-0.08698-0.02698-0.17596-0.02698-0.26764c0-0.09174,0.01074-0.18066,0.02698-0.26764L6,14.37323
	c0.26459-1.41382,0.81793-2.72614,1.60321-3.87018l7.19714,4.92432c0.10175-0.1485,0.23029-0.27704,0.37885-0.37878
	l-4.92438-7.19714c1.1441-0.78528,2.45636-1.33862,3.87018-1.60321l1.60736,8.57263C15.8194,14.80463,15.90833,14.79388,16,14.79388
	s0.1806,0.01074,0.26764,0.02698L17.875,6.24823c1.41382,0.26459,2.72607,0.81793,3.87018,1.60321l-4.92438,7.19714
	c0.14856,0.10175,0.2771,0.23029,0.37885,0.37878l7.19714-4.92432c0.78528,1.14404,1.33862,2.45636,1.60321,3.87018
	l-8.57263,1.60736c0.01624,0.08698,0.02698,0.1759,0.02698,0.26764c0,0.09167-0.01074,0.18066-0.02698,0.26764L26,18.12317
	c-0.26459,1.41388-0.81793,2.72614-1.60321,3.87024L17.19965,17.06903z M27.54706,23.90063l-1.66302-1.13782
	c0.92914-1.34851,1.58588-2.8927,1.90063-4.55322l1.9671,0.36884C29.38788,20.52271,28.62695,22.32733,27.54706,23.90063z"/>
</svg>
