<?xml version="1.0" encoding="utf-8"?>
<svg version="1.1" id="e-sports" xmlns="http://www.w3.org/2000/svg" xmlns:xlink="http://www.w3.org/1999/xlink" x="0px" y="0px"
	 viewBox="0 0 32 22" style="enable-background:new 0 0 32 22;" xml:space="preserve">
<path fill="#cec43b"  d="M25.30503,8.43064H6.78468C3.11729,8.43064,0,11.54792,0,15.21532S3.11729,22,6.78468,22h18.42866
	c3.66739,0,6.78468-3.11729,6.78468-6.78468C32.08971,11.54792,28.97243,8.43064,25.30503,8.43064z M24.57155,11.0895
	c0.91685,0,1.65033,0.73348,1.65033,1.65033c0,0.91685-0.73348,1.65033-1.65033,1.65033c-0.91685,0-1.65033-0.73348-1.65033-1.65033
	C22.92122,11.82298,23.74639,11.0895,24.57155,11.0895z M11.09387,16.04048H7.79322v3.30066H6.14289v-3.30066H2.84223v-1.74201
	h3.30066V11.0895H7.8849v3.30066h3.30066v1.65033H11.09387z M20.44573,15.21532c0-0.91685,0.73348-1.65033,1.65033-1.65033
	c0.91685,0,1.65033,0.73348,1.65033,1.65033s-0.73348,1.65033-1.65033,1.65033
	C21.17921,16.86565,20.44573,16.13217,20.44573,15.21532z M24.57155,19.34114c-0.91685,0-1.65033-0.73348-1.65033-1.65033
	s0.82516-1.65033,1.65033-1.65033c0.82516,0,1.65033,0.73348,1.65033,1.65033S25.4884,19.34114,24.57155,19.34114z
	 M27.13873,16.86565c-0.91685,0-1.65033-0.73348-1.65033-1.65033s0.73348-1.65033,1.65033-1.65033s1.65033,0.73348,1.65033,1.65033
	S28.05558,16.86565,27.13873,16.86565z M17.05339,7.05974h-2.01707C15.03632,3.11729,18.15361,0,22.09606,0v2.01707
	C19.25383,2.10875,17.05339,4.30919,17.05339,7.05974z"/>
</svg>
