<?xml version="1.0" encoding="utf-8"?>
<!-- Generator: Adobe Illustrator 21.0.0, SVG Export Plug-In . SVG Version: 6.00 Build 0)  -->
<svg version="1.1" id="field_hockey" xmlns="http://www.w3.org/2000/svg" xmlns:xlink="http://www.w3.org/1999/xlink" x="0px" y="0px"
	 viewBox="0 0 32 32" style="enable-background:new 0 0 32 32;" xml:space="preserve"><path d="M15.93078,25.61823c1.67353,0,3.0302,1.34697,3.0302,3.00855 c0,1.66157-1.35666,3.00855-3.0302,3.00855s-3.0302-1.34698-3.0302-3.00855C12.90058,26.96521,14.25725,25.61823,15.93078,25.61823z M25.93961,0l-9.36606,20.05698c0,0-1.19371,1.73219-3.0302,1.18518c0,0-2.11195-0.45584-2.75472-2.0057l0,0 c0-0.82051-0.18365-1.73219-0.45912-2.46154c-0.09182-0.09117-0.09182-0.18234-0.18365-0.2735c0,0,0-0.09117-0.09182-0.09117 c0-0.09117-0.09182-0.18234-0.18365-0.2735c-1.46919-2.09687-4.40756-2.91738-6.79499-1.73219 c-2.57108,1.27635-3.85661,4.37607-2.57108,7.01994l0,0c0,0,1.83648,8.75214,10.46795,10.5755 c-0.64277-1.00285-1.01007-2.09686-1.01007-3.28205c0-3.37322,2.75472-6.10826,6.15222-6.10826 c3.21384,0,5.96857,2.46154,6.15222,5.65242c0.91824-1.36752,1.83648-3.19088,2.57107-5.56125L32,1.91453L25.93961,0z"></path></svg>