<?xml version="1.0" encoding="utf-8"?>
<!-- Generator: Adobe Illustrator 21.0.0, SVG Export Plug-In . SVG Version: 6.00 Build 0)  -->
<svg version="1.1" id="football" xmlns="http://www.w3.org/2000/svg" xmlns:xlink="http://www.w3.org/1999/xlink" x="0px" y="0px"
	 viewBox="0 0 32 32" style="enable-background:new 0 0 32 32;" xml:space="preserve">
<path fill="#cc2d36" d="M16,0C7.22286,0,0,7.22286,0,16s7.22286,16,16,16s16-7.22286,16-16S24.77714,0,16,0z
	 M8.04571,24.77714C7.77143,25.05143,7.40571,25.23429,7.04,25.6c-0.45714,0.36571-1.00571,0.82286-1.46286,1.28
	c-2.92571-2.74286-4.57143-6.58286-4.57143-10.78857c0-0.09143,0-0.18286,0-0.27428
	c1.37143,0.45714,2.83429,1.00571,4.20571,1.37143c0.09143,0,0.18286,0.09143,0.18286,0.18286
	c0.91429,2.28571,1.82857,4.66286,2.74286,7.04C8.22857,24.59429,8.22857,24.68571,8.04571,24.77714z M9.41714,11.88571
	c0-1.37143-0.09143-2.83429-0.09143-4.11429c0-0.91429-0.09143-1.73714-0.09143-2.56c0-0.18286,0.09143-0.27429,0.27429-0.36571
	c2.28572-0.82286,4.66286-1.73714,7.04-2.46857c0.09143-0.09143,0.18286-0.09143,0.27428,0.09143
	c1.73714,1.55429,3.38286,3.2,5.12,4.75429c0,0,0,0,0.09143,0.09143c-1.37143,2.01143-2.92571,4.11429-4.29714,6.12571
	c-0.09143,0.09143-0.18286,0.09143-0.27428,0.09143c-2.56-0.45714-5.30286-1.00572-7.86286-1.46286
	C9.50857,11.97714,9.50857,11.88571,9.41714,11.88571z M26.60571,23.04c-0.18286,1.37143-0.45714,2.74286-0.73143,4.11429
	c-0.09143,0.27428-0.18286,0.45714-0.45714,0.64c-2.10286,0.91429-4.29714,1.82857-6.4,2.74286
	c-0.18286,0.09143-0.27428,0.09143-0.36571,0c-1.18857-1.28-2.46857-2.56-3.65714-3.93143l-0.09143-0.09143
	c0.73143-0.73143,1.28-1.46286,2.01143-2.19429c1.00571-1.09714,2.01143-2.28571,3.10857-3.38286
	c0.09143-0.09143,0.18286-0.18286,0.36571-0.18286c2.19428,0.27429,4.38857,0.45714,6.58286,0.82286c0,0,0.09143,0,0.18286,0
	C26.78857,21.76,26.69714,22.4,26.60571,23.04z M30.17143,16.18286c-0.18286,0-0.27428-0.09143-0.36572-0.27428
	c-0.82286-2.19429-1.46286-4.29714-2.28572-6.49143c-0.09143-0.18286-0.09143-0.45714,0-0.73143
	c0.09143-0.64,0.27428-1.18857,0.36571-1.73714c1.92,2.46857,3.10857,5.66857,3.10857,9.14286c0,0.09143,0,0.18286,0,0.27428
	C30.81143,16.27428,30.53714,16.18286,30.17143,16.18286z"/>
</svg>
