<?xml version="1.0" encoding="utf-8"?>
<!-- Generator: Adobe Illustrator 21.0.0, SVG Export Plug-In . SVG Version: 6.00 Build 0)  -->
<svg version="1.1" id="golf" xmlns="http://www.w3.org/2000/svg" xmlns:xlink="http://www.w3.org/1999/xlink" x="0px" y="0px"
	 viewBox="0 0 32 32" style="enable-background:new 0 0 32 32;" xml:space="preserve">
<path fill="#cec43b" d="M16,0C7.13141,0,0,7.13141,0,16c0,8.86853,7.13141,16,16,16s16-7.13147,16-16
	C32,7.13141,24.86859,0,16,0z M29.89716,13.07428c0.09143,0.09143,0.18286,0.18286,0.27429,0.18286
	c0.09143-0.36572,0.09143-0.45715,0-1.1886c0.27429,0.27429,0.45715,1.28003,0.27429,1.64575
	c-0.09143,0.18286-0.18286,0.18286-0.27429,0.09143c-0.18286-0.18286-0.27429-0.45715-0.36572-0.73145
	C29.80573,13.07428,29.80573,13.07428,29.89716,13.07428z M5.76001,26.05713C5.48572,26.23999,5.30286,25.9657,5.12,25.87427
	c-0.36572-0.27429-0.64001-0.73145-0.73145-1.27997c0.36572,0.36566,0.64001,1.00568,1.46289,0.91425
	C5.66858,25.59998,5.85144,25.9657,5.76001,26.05713z M6.0343,25.32568c0.27429,0.18286,0.45715,0.45715,0.73138,0.54858
	c0.18286,0.09143,0.45715,0.18286,0.54858-0.18286H7.4057c0.18286,0.27429,0.27429,0.54858,0.09143,0.73145
	c-0.27429,0.27429-0.54858,0-0.73145-0.09143C6.40002,26.14856,6.12573,25.78284,6.0343,25.32568z M6.58289,27.42853
	c1.09711,0.64001,1.09711,0.64001,1.27997,0.45715c0,0.18286,0.09143,0.27429,0.09143,0.36572
	C7.58856,28.34283,6.85712,27.88568,6.58289,27.42853z M7.77142,25.05139c-0.09143,0.18286-0.45715,0.09143-0.91431-0.09143
	c-0.27423-0.18286-0.54852-0.27429-1.00568-0.09143c-0.27429,0.09143-0.54858,0-0.73145-0.18286
	c-0.18286-0.36566-0.54858-0.45709-1.00574-0.45709c0,0-1.09711,0-1.91998-2.83429c0-0.36572-0.09143-0.64001-0.27429-1.00574
	C1.46283,19.83997,1.28003,19.20001,1.28003,18.56c0-0.36572,0-0.91431-0.09143-1.28003c0-0.18286-0.09143-0.36572-0.18286-0.45715
	c0-0.27423,0-0.45709,0-0.73138c0-1.37146,0.18286-2.65143,0.45709-3.84003c0.09143-0.09143,0.09143-0.09143,0.18286-0.09143
	c0.09143,0.09143,0.09143,0.18286,0.18286,0.27429c0-0.27429,0-0.54858,0-0.91431c-0.09143,0-0.09143,0-0.18286,0
	c0.09143-0.36566,0.27429-0.91425,0.45715-1.27997C2.37714,9.78284,2.65143,9.32568,2.74286,8.7771
	c2.56-4.66284,7.49713-7.77142,13.16571-7.77142c4.29712,0,8.13715,1.82861,10.88,4.75433
	c0.18286,0.1828,0.27429,0.45709,0.27429,0.73138c0.54858,0,0.64001,0.54858,1.00568,1.00574
	c0.27429,0.36572,0.54858,0.91431,0.91431,1.3714c-0.09143,0-0.18286,0-0.27429-0.09143
	c0.09143,0.18286-0.09143,0.45715,0.27429,0.54858c0.09143,0,0.18286,0.09143,0.18286,0.18286
	c0.18286,0.36572,0.45715,0.91431,0.54858,1.28003c0.09143,0.18286,0,0.45715-0.09143,0.54852
	c-0.27429,0.45715-0.27429,1.00574-0.18286,1.46289c0.09143,0.27429,0.18286,0.54858,0.18286,1.00574
	c0.09143,0.45709-0.09143,1.00568-0.54858,1.27997c-0.27429,0.18286-0.54858,0.45715-0.91431,0.73145
	c-0.36566,0.36572-0.45709,0.91425-0.36566,1.3714c0.09143,0.64001,0.09143,1.37146-0.36572,1.82861
	C26.88,19.56567,26.69714,20.29712,26.88,21.02856c0.09143,0.73145,0,1.00568-0.64001,1.3714
	c-0.36572,0.18286-0.54858,0.54858-0.73145,1.00574c-0.1828,0.54858-0.45709,1.09717-1.00568,1.3714
	c-0.45715,0.36572-1.00574,0.45715-1.55432,0.36572c-0.36566,0-0.73138,0-1.18854,0.18286
	c-0.64001,0.27429-1.28003,0.45715-1.91998,0.18286c-0.27429-0.09143-0.54858,0-0.91431,0.09143s-0.73145,0.09143-1.1886,0
	c-0.18286-0.09143-0.45709-0.09143-0.73138,0c-0.91431,0.18286-1.73718,0.36572-2.65143,0c-0.27429-0.09143-0.64001,0-1.00574,0
	c-0.64001,0.18286-1.3714,0.18286-1.91998-0.18286c-0.27429-0.18286-0.64001-0.18286-1.09717,0s-1.00568,0.18286-1.46283-0.18286
	C8.5943,24.95996,8.22858,24.95996,7.77142,25.05139z M28.43427,19.20001c0.45715,0.54852,0.09143,1.91998-0.54852,2.10284
	c-0.27429,0.09143-0.54858-0.09143-0.54858-0.54858C27.79431,20.75427,28.06854,20.47998,28.43427,19.20001z M27.24573,22.94855
	c-0.09143,0.45715-0.36572,1.00574-0.73145,1.28003c-0.18286,0.09143-0.36572,0.09143-0.54858,0.09143
	c-0.09143-0.09143-0.18286-0.27429-0.27429-0.54858c0.91431-0.09143,1.1886-0.73145,1.37146-1.37146
	C27.33716,22.49139,27.24573,22.67426,27.24573,22.94855z M25.50854,25.50854c-0.09143,0.45715-0.63995,1.1886-1.27997,1.28003
	c-0.18286,0-0.36572,0-0.45715-0.18286c0-0.18286,0-0.36572,0.27429-0.45715c0.45715-0.09143,0.91431-0.54858,1.09717-1.00574
	C25.50854,25.14282,25.59998,25.23425,25.50854,25.50854z M23.22284,26.14856c-0.09143,0.54858-0.91425,1.09717-1.46283,1.09717
	c-0.27429-0.09143-0.45715-0.27429-0.36572-0.64001c0.73145,0.09143,1.27997-0.27429,1.55426-1.00574
	C23.13141,25.69141,23.22284,25.87427,23.22284,26.14856z M17.82855,27.06287c-0.18286,0.36566-0.73138,0.63995-1.27997,0.45709
	c-0.45715-0.09143-0.64001-0.36566-0.64001-0.73138c0.73145,0.36572,1.46283,0.09143,1.73712-0.45715
	C17.91998,26.51428,17.91998,26.78857,17.82855,27.06287z M15.08569,27.33716c-0.36572,0.1828-0.82281,0.27423-1.18854,0.1828
	c-0.45715-0.18286-0.64001-0.45709-0.64001-0.91425c0.91431,0.45715,1.37146,0.36572,1.73712-0.27429
	C15.26855,26.69714,15.26855,26.97144,15.08569,27.33716z M9.87427,27.06287c-0.18286,0.18286-0.45715,0.18286-0.73138,0
	c-0.45715-0.18286-0.73145-0.54858-0.91431-1.1886c0.91431,0.64001,1.27997,0.73145,1.55426,0.18286c0,0,0,0.09143,0.09143,0.09143
	C9.9657,26.51428,10.05713,26.78857,9.87427,27.06287z M8.13715,27.51996c0.27429,0.09143,0.36572,0.27429,0.54858,0.36572
	s0.36572,0.18286,0.54858,0.18286c0.36566-0.09143,0.36566,0.18286,0.45709,0.36572c0,0.09143-0.09143,0.27429-0.18286,0.27429
	C9.14288,28.89142,8.22858,28.15997,8.13715,27.51996z M10.05713,29.80573C9.59998,29.62286,9.14288,29.44,8.77716,29.16571
	c-0.09143,0-0.18286-0.09143-0.18286-0.09143c0.45715,0.27429,1.00568,0.45715,1.55426,0.73145H10.05713z M10.14856,29.34857
	c0.36572,0.18286,0.73145,0.54852,1.37146,0.36572c0,0.09143,0.09143,0.18286,0.09143,0.27423
	C11.06287,30.17139,10.60571,29.89716,10.14856,29.34857z M11.52002,28.98285c-0.54858,0.18286-1.46289-0.45715-1.46289-1.09717
	c0.45715,0.27429,0.91431,0.64001,1.46289,0.27429c0.09143,0.09143,0.18286,0.27429,0.18286,0.36572
	C11.79431,28.79999,11.61145,28.98285,11.52002,28.98285z M11.42859,27.33716c-0.45715-0.09143-0.91431-0.45715-0.91431-1.00574
	c0.27429,0.09143,0.54858,0.27429,0.91431,0.27429c0.27429,0.09143,0.63995-0.09143,0.73138-0.45715
	c0.27429,0.45715,0.36572,0.73145,0.18286,1.00574C12.15997,27.42853,11.88574,27.42853,11.42859,27.33716z M12.98285,30.35425
	c-0.36572,0-1.00568-0.27429-1.09711-0.54852c0.54852,0.36566,1.00568,0.45709,1.27997,0.09143
	C13.44,30.17139,13.34857,30.35425,12.98285,30.35425z M12.43427,28.34283c0.45715,0.27429,1.00574,0.45715,1.55432-0.09143
	c0,0.27429,0.18286,0.54858,0.09143,0.73145c-0.09143,0.27429-0.36572,0.27429-0.73145,0.27429
	C12.79999,29.16571,12.43427,28.79999,12.43427,28.34283z M14.99426,30.44568c-0.36566,0.09143-0.91425,0-1.18854-0.36572
	c0.73145,0.27429,1.09711,0.27429,1.27997-0.09143C15.35999,30.17139,15.35999,30.35425,14.99426,30.44568z M15.26855,29.16571
	c-0.36572-0.09143-0.54858-0.27429-0.45715-0.64001c0.64001,0.27429,1.00574,0.18286,1.46289-0.27429
	c0.27429,0.18286,0.27429,0.36572,0.18286,0.64001C16.27429,29.16571,15.81714,29.34857,15.26855,29.16571z M17.1886,30.35425
	c-0.45715,0.18286-1.00574,0.18286-1.28003-0.18286c0.73145,0.09143,1.09717,0,1.37146-0.36566
	C17.46283,29.98853,17.3714,30.17139,17.1886,30.35425z M17.28003,28.5257c0.54852,0.09143,1.00568,0,1.3714-0.45715
	c0.36572,0.18286,0.36572,0.45715,0.18286,0.73145c-0.27429,0.36572-0.91431,0.54858-1.28003,0.36572
	C17.28003,29.07428,17.1886,28.89142,17.28003,28.5257z M19.01715,30.17139c-0.45715,0.27429-1.00574,0.27429-1.1886,0
	c0.54858,0,1.09717-0.09143,1.37146-0.54852C19.38287,29.89716,19.29144,29.98859,19.01715,30.17139z M19.10858,27.42853
	c-0.27429-0.09143-0.45715-0.27423-0.36572-0.63995c0.73145,0.18286,1.1886,0,1.73712-0.73145
	c0.27429,0.27429,0.27429,0.45715,0.09143,0.91431C20.29712,27.3371,19.56573,27.51996,19.10858,27.42853z M19.56573,28.79999
	c0-0.18286,0-0.27429,0.27429-0.36572c0.36566,0,0.73138-0.18286,1.00568-0.45715c0.09143-0.09143,0.18286-0.18286,0.36572-0.09143
	c0.09143,0.09143,0.09143,0.27429,0.09143,0.36572c-0.09143,0.36572-0.73145,0.73145-1.28003,0.73145
	C19.84003,29.07428,19.56573,29.07428,19.56573,28.79999z M20.38855,30.35425c0.09143-0.09143,0.27429-0.09143,0.36572-0.18286
	C20.66284,30.26282,20.47998,30.35425,20.38855,30.35425z M19.93146,30.07996c-0.09143,0-0.09143-0.09137-0.18286-0.1828
	c0.54852-0.09143,1.09711-0.27429,1.3714-0.64001c0,0,0.09143,0,0.18286,0c0,0.09143,0,0.09143,0,0.18286
	C21.21143,29.71429,20.20569,30.17139,19.93146,30.07996z M21.39429,29.89716c0,0,0-0.09143-0.09143-0.09143
	c0.45715-0.27429,1.09717-0.64001,1.64569-1.00574C22.85712,29.25714,22.0343,29.89716,21.39429,29.89716z M23.49713,27.79425
	c-0.27429,0.45715-0.64001,0.91431-1.27997,1.00574c-0.09143,0-0.18286-0.09143-0.36572-0.09143v-0.09143
	c0.73145-0.18286,1.18854-0.45715,1.64569-1.09717C23.49713,27.51996,23.49713,27.70282,23.49713,27.79425z M23.86285,28.34283
	c-0.09143,0-0.18286,0-0.27429-0.09143c0.09143-0.09143,0.09143-0.18286,0.18286-0.18286
	c0.54858-0.27429,1.00574-0.64001,1.28003-1.18854h0.09143c0,0.09143,0,0.18286,0,0.27429
	C24.86859,27.79425,24.41144,28.15997,23.86285,28.34283z M26.33142,26.88c-0.27429,0.27429-0.64001,0.54852-1.00574,0.91425
	c-0.09137,0-0.1828,0.09143-0.27423,0.09143c0.45709-0.45715,1.00568-1.00568,1.55426-1.46283
	C26.60571,26.60571,26.51428,26.78857,26.33142,26.88z M27.1543,24.95996c-0.18286,0.54858-0.54858,1.09717-1.09717,1.37146
	c-0.09143,0-0.18286,0-0.27429,0c0-0.09143,0-0.18286,0-0.18286c0.54858-0.27429,1.00574-0.73145,1.1886-1.46289
	c0,0,0,0,0.09143-0.09143C27.1543,24.5943,27.24573,24.86853,27.1543,24.95996z M27.24573,25.59998
	c0.36572-0.54858,0.91425-1.18854,1.27997-1.64569C28.5257,24.32001,27.70288,25.50854,27.24573,25.59998z M28.15997,23.58856
	c-0.18286,0.09143-0.36566,0.18286-0.45709-0.09143c0.73138-0.36572,1.00568-1.09717,1.18854-1.82855
	c0,0.09143,0.09143,0.18286,0.09143,0.27423C28.89142,22.58282,28.61713,23.03998,28.15997,23.58856z M28.79999,17.91998
	c-0.09143,0-0.27429-0.18286-0.36572-0.36572c-0.09143-0.09143-0.09143-0.18286-0.09143-0.27429
	c0.36572,0.09143,0.54858,0.09143,0.64001-0.27429c0.09143-0.36566,0.18286-0.63995,0.18286-1.09711
	c0,0.09143,0.09143,0.09143,0.09143,0.18286c0.18286,0.54858,0.18286,1.09711-0.09143,1.55426
	C29.16571,17.82855,28.98285,18.01141,28.79999,17.91998z M29.98859,18.46857c0,0.18286,0.09143,0.27429,0.09143,0.45715
	c0,0.54852-0.18286,1.00568-0.54858,1.55426c-0.18286,0.27429-0.27429,0.18286-0.45715,0
	C29.80573,20.02283,29.80573,19.20001,29.98859,18.46857z M29.89716,21.94287c-0.09143,0.1828-0.18286,0.27423-0.18286,0.45709
	c-0.18286,0.27429-0.27429,0.45715-0.45715,0.54858c0.27429-0.64001,0.54858-1.3714,0.91431-1.91998
	C30.08002,21.21143,29.98859,21.48572,29.89716,21.94287z M29.89716,17.00568c0.45715-0.18286,0.54858-0.73138,0.45715-2.01141
	c0,0.09143,0.09143,0.09143,0.09143,0.18286c0.18286,0.54858,0.18286,1.1886,0,1.73712c0,0.09143-0.09143,0.18286-0.27429,0.27429
	C30.17145,17.27997,30.08002,17.09711,29.89716,17.00568z M30.26288,19.83997c0.36572-0.73138,0.45709-1.55426,0.54852-2.28571
	c0.09143,0.18286,0.09143,0.36572,0.09143,0.54858c-0.09143,0.36572-0.18286,0.73145-0.18286,1.00574
	C30.6286,19.47424,30.44574,19.74854,30.26288,19.83997z M17.73714,24.04571c0.36571-0.36571,0.82286-0.45714,1.28-0.36571
	c0.27429,0.09143,0.54857,0.27429,0.54857,0.64c0.09143,0.18286,0,0.36572,0,0.54857c-0.73143-0.54857-1.28-0.45714-1.92,0.18286
	C17.46286,24.59429,17.55429,24.22857,17.73714,24.04571z M14.72,23.95428c0.36571-0.36571,1.09714-0.36571,1.46286-0.09143
	c0.36572,0.18286,0.45714,0.73143,0.27429,1.09714c-0.64-0.54857-1.18857-0.54857-1.82857,0
	C14.44571,24.59429,14.53714,24.22857,14.72,23.95428z M22.58286,24.41143c-0.36571-0.18286-0.73143-0.27429-1.00571-0.09143
	c-0.36571,0.09143-0.64,0.27429-1.00571,0.54857c0-0.18286,0-0.36571,0-0.54857c0.09143-0.54857,0.64-1.00571,1.18857-1.00571
	C22.4,23.31429,22.76571,23.68,22.58286,24.41143z M25.14285,22.94857c0.27429,0.27428,0.18286,0.64,0.09143,0.91429
	c-0.54857-0.36572-1.00571-0.09143-1.64571,0.64c0-0.18286-0.09143-0.45714,0-0.64c0.18286-0.36572,0.36572-0.73143,0.64-0.91429
	C24.41143,22.76571,24.86857,22.76571,25.14285,22.94857z M11.79429,23.68c0.27428-0.27429,0.91429-0.27429,1.28-0.09143
	c0.45714,0.27429,0.64,0.73143,0.54857,1.28c-0.82286-0.73143-1.28-0.73143-1.92-0.18286C11.52,24.32,11.52,24.04571,11.79429,23.68
	z M22.4,21.21143c0.09143-0.27428,0.27429-0.54857,0.54857-0.73143c0.36571-0.18286,0.73143-0.27429,1.00571-0.09143
	S24.32,20.93714,24.32,21.30286c-0.73143-0.64-1.46286-0.45714-2.01143,0.64C22.30857,21.76,22.21714,21.39429,22.4,21.21143z
	 M23.86286,18.65143c-0.18286-0.54857-0.09143-1.09714,0.27428-1.46286c0.45714-0.64,1.28-0.27429,1.46286,0.36572
	c0.09143,0.18286,0.09143,0.27428,0.09143,0.45714c-0.36572-0.45714-0.73143-0.54857-1.09714-0.36571
	C24.22857,17.82857,24.04571,18.19428,23.86286,18.65143z M9.05143,23.31429C9.23429,23.04,9.50857,23.04,9.78286,23.13143
	c0.64,0.18286,1.00571,0.73143,1.00571,1.37143C10.05714,23.77143,9.41714,23.68,8.96,24.32
	C8.86857,24.04571,8.68571,23.77143,9.05143,23.31429z M26.88,20.20572c0,0.09143,0,0.18286,0,0.27428
	c-0.73143-0.36571-1.18857-0.09143-1.64571,1.00571c-0.18286-0.54857,0-1.28,0.45714-1.64571
	C26.14857,19.47429,26.69714,19.65714,26.88,20.20572z M27.52,16.64c0.09143,0.18286,0.18286,0.45714,0.18286,0.64
	c-0.18286-0.18286-0.45714-0.36571-0.73143-0.27428c-0.45714,0.18286-0.54857,0.64-0.64,1.09714
	c-0.18286-0.45714-0.09143-1.18857,0.27428-1.55429C26.97143,16.27428,27.33714,16.27428,27.52,16.64z M8.22857,24.13714
	c-0.64-0.82286-1.18857-0.91429-1.64571-0.36571c-0.09143-0.18286-0.09143-0.27429-0.09143-0.45714
	c0-0.36571,0.27429-0.54857,0.64-0.45714C7.77143,22.94857,8.22857,23.58857,8.22857,24.13714z M4.11429,20.11429
	c0.09143,0.18286,0.09143,0.27428,0.09143,0.45714C3.84,19.84,3.29143,19.74857,2.92571,20.11429
	c-0.09143-0.54857,0-0.91429,0.27429-1.00571C3.65714,19.01714,3.93143,19.2,4.11429,19.65714
	C4.11429,19.84,4.20571,19.93143,4.11429,20.11429z M5.39429,22.58286c0.27429,0.27429,0.45714,0.73143,0.54857,1.28
	c-0.18286-0.27429-0.36571-0.45714-0.54857-0.64c-0.45714-0.27428-0.64-0.27428-0.91429,0
	c-0.09143-0.45714-0.18286-0.73143,0.09143-0.91429C4.84571,22.12572,5.12,22.4,5.39429,22.58286z M27.70286,13.16571
	c0.18286,0.36571,0.27429,0.73143,0.45714,1.00571c0,0.09143-0.09143,0.09143-0.09143,0.09143
	c-0.18286-0.18286-0.36572-0.54857-0.73143-0.45714c-0.27429,0.09143-0.36572,0.36572-0.45714,0.73143
	c-0.18286-0.54857-0.18286-0.82286,0-1.18857C27.06286,12.98286,27.42857,12.89143,27.70286,13.16571z M19.2,22.30857
	c-0.18286-0.36571-0.27429-0.64-0.09143-1.00571c0.18286-0.45714,0.64-0.64,1.09714-0.73143
	c0.45714,0,0.73143,0.09143,1.00571,0.54857C20.29714,20.57143,19.29143,21.12,19.2,22.30857z M16.09143,22.4
	C15.72571,21.94286,16,21.21143,16.36572,20.93714c0.54857-0.36572,1.28-0.27429,1.64571,0.27429
	C16.91429,20.84571,16.09143,21.30286,16.09143,22.4z M21.02857,19.2c-0.36572-0.45714-0.18286-1.28,0.36571-1.64571
	c0.45714-0.27429,1.09714-0.18286,1.37143,0.27428C21.48571,17.37143,20.84571,18.28572,21.02857,19.2z M13.07429,22.4
	c-0.36571-0.54857-0.27429-1.18857,0.18286-1.46286s1.09714-0.18286,1.55429,0.36572
	c-0.45714-0.27429-1.00572-0.36572-1.37143-0.09143C13.07429,21.48571,12.98286,21.94286,13.07429,22.4z M10.05714,22.12572
	C9.78286,21.76,9.87429,21.02857,10.24,20.75429c0.45714-0.36571,1.09714-0.18286,1.46286,0.36572
	c-0.45714-0.27429-0.82286-0.45714-1.18857-0.18286C10.05714,21.21143,9.96571,21.66857,10.05714,22.12572z M3.38286,21.76
	c0.27429,0.36572,0.45714,0.82286,0.54857,1.37143c-0.45714-0.45714-0.54857-1.09714-1.18857-1.00571v-0.09143
	c0.09143-0.18286,0.09143-0.36572,0.09143-0.54857C2.92571,21.66857,3.2,21.76,3.38286,21.76z M29.16571,12.52571
	c0.18286,0.45714,0.27428,0.73143,0.45714,1.09714c-0.27428-0.18286-0.45714-0.36571-0.64-0.45714
	c-0.09143,0-0.27429,0.27429-0.45714,0.45714c0-0.36571,0-0.64,0.09143-0.91429
	C28.70857,12.34286,28.98286,12.25143,29.16571,12.52571z M7.49714,21.76C7.13143,21.02857,7.31429,20.48,7.68,20.29714
	c0.36571-0.18286,0.91429,0,1.37143,0.54857c-0.45714-0.27428-0.82286-0.45714-1.18857-0.27428
	C7.49714,20.84571,7.49714,21.21143,7.49714,21.76z M24.77714,15.36c-0.27429-0.45714-0.09143-1.28,0.27428-1.55429
	c0.36572-0.18286,0.73143-0.09143,1.00571,0.27429c-0.18286-0.09143-0.45714-0.18286-0.64-0.09143
	C25.23428,14.08,25.05143,14.35429,24.96,14.53714C24.86857,14.72,24.96,14.99429,24.77714,15.36z M28.16,10.33143
	c0-0.18286-0.09143-0.36572-0.09143-0.54857c0-0.09143,0.09143-0.27429,0.09143-0.36571
	C28.34286,9.50857,28.43428,9.50857,28.52571,9.6c0.27429,0.45714,0.45714,0.82286,0.64,1.18857
	C28.52571,9.96571,28.52571,9.96571,28.16,10.33143z M4.11429,18.10286c-0.18286-0.54857-0.18286-0.91429-0.09143-1.28
	c0.09143-0.27429,0.18286-0.45714,0.45714-0.54857c0.27429,0,0.45714,0.09143,0.64,0.36572
	C4.48,16.36571,3.93143,16.91429,4.11429,18.10286z M2.19429,14.17143c-0.27429-0.36571,0-1.55429,0.27429-1.82857
	C2.65143,12.16,2.74286,12.16,2.92571,12.43429C2.46857,12.61714,2.10286,13.16571,2.19429,14.17143z M5.94286,19.93143
	c0.09143,0,0.09143,0.09143,0.18286,0.18286C5.66857,19.93143,5.30286,19.84,5.12,20.20572
	c-0.09143,0.36571-0.09143,0.64-0.18286,1.00571c0-0.36572-0.09143-0.64-0.09143-0.91429
	C4.93714,19.65714,5.39429,19.47429,5.94286,19.93143z M1.92,18.19429c0.18286,0.45714,0.27429,0.82286,0.45714,1.18857
	C2.10286,19.2,1.92,19.01714,1.73714,18.83429c0,0-0.18286,0.18286-0.27429,0.27429c0-0.18286,0-0.45714,0-0.64
	c0-0.09143,0.09143-0.27429,0.18286-0.27429C1.73714,18.10286,1.82857,18.19428,1.92,18.19429z M1.82857,15.81714
	c-0.18286-0.09143-0.27429-0.18286-0.36571-0.27429C1.28,15.63429,1.18857,15.81714,1.09714,16
	c0.09143-0.45714,0.09143-0.73143,0.18286-1.00571c0-0.09143,0.09143-0.18286,0.18286-0.27429
	c0.09143,0.09143,0.18286,0.18286,0.18286,0.27429C1.64571,15.36,1.73714,15.54286,1.82857,15.81714z M3.01714,15.90857
	c-0.64,0-0.82286,0.45714-0.73143,1.55429C2.10286,17.00571,2.01143,16.45714,2.19429,16
	C2.46857,15.54286,2.74286,15.45143,3.01714,15.90857z M27.70286,10.33143c-0.54857-0.18286-0.73143,0.09143-0.64,1.00572
	C26.97143,11.15429,26.88,10.88,26.88,10.69714c-0.09143-0.27429-0.09143-0.54857,0.18286-0.64
	C27.33714,9.96571,27.42857,10.24,27.70286,10.33143z M27.24571,7.77143C27.06286,7.40571,26.97143,7.04,26.78857,6.76571
	L26.88,6.67429c0.18286,0.09143,0.36572,0.27429,0.64,0.45714C27.06286,7.13143,27.06286,7.13143,27.24571,7.77143z M26.88,8.86857
	c-0.64-0.36571-0.73143-0.36571-0.91429,0c-0.09143-0.09143-0.09143-0.18286-0.09143-0.27429
	c0-0.27429,0.09143-0.45714,0.36571-0.27429C26.51429,8.50286,26.69714,8.68571,26.88,8.86857z"/>
</svg>
