<?xml version="1.0" encoding="utf-8"?>
<!-- Generator: Adobe Illustrator 21.0.0, SVG Export Plug-In . SVG Version: 6.00 Build 0)  -->
<svg version="1.1" id="handball" xmlns="http://www.w3.org/2000/svg" xmlns:xlink="http://www.w3.org/1999/xlink" x="0px" y="0px"
	 viewBox="0 0 32 32" style="enable-background:new 0 0 32 32;" xml:space="preserve">
<path fill="#33b153" d="M24.41143,7.97708c1.92,2.01719,3.01714,4.58453,3.2,7.33524H4.29714
	c0.18286-2.75072,1.28-5.31805,3.2-7.33524L24.41143,7.97708z M16.64,32c2.74286-0.09169,5.30286-0.91691,7.49714-2.20057V25.2149
	H16.64V32z M15.36,0c-2.83429,0.09169-5.30286,0.91691-7.58857,2.20057v4.49284H15.36V0z M7.77143,29.79943
	C9.96571,31.08309,12.52571,31.90831,15.36,32v-6.7851H7.77143V29.79943z M4.29714,16.41261
	c0.18286,2.9341,1.28,5.50143,3.2,7.61032h17.00571c1.92-2.10888,3.10857-4.67622,3.2-7.51863H4.29714V16.41261z M25.32571,3.02579
	v4.12607C27.61143,9.53582,28.8,12.65329,28.8,15.95415s-1.28,6.41834-3.47429,8.80229v4.12608
	C29.25714,25.94842,32,21.27221,32,15.86246S29.44,5.95989,25.32571,3.02579z M16.64,6.7851h7.49714V2.20057
	C21.94286,0.91691,19.38286,0.09169,16.64,0V6.7851z M6.67429,24.84814C4.38857,22.46418,3.2,19.34671,3.2,16.04585
	s1.28-6.41834,3.47429-8.80229V3.02579C2.74286,5.95989,0,10.6361,0,16.04585C0,21.3639,2.56,26.13181,6.67429,29.0659V24.84814z"/>
<path style="fill:#3AAA35;" d="M16,0L16,0L16,0z"/>
</svg>
