<?xml version="1.0" encoding="utf-8"?>
<!-- Generator: Adobe Illustrator 21.0.0, SVG Export Plug-In . SVG Version: 6.00 Build 0)  -->
<svg version="1.1" id="motorsports" xmlns="http://www.w3.org/2000/svg" xmlns:xlink="http://www.w3.org/1999/xlink" x="0px"
	 y="0px" viewBox="0 0 32 28" style="enable-background:new 0 0 32 28;" xml:space="preserve">
<path d="M14.99429,18.7907C14.90286,18.7907,14.90286,18.7907,14.99429,18.7907
	c-5.76,0-5.94286-2.04651-6.03429-3.06977l0,0c0.45714-5.11628,3.56571-5.2093,6.30857-5.30233
	c0.36571,0,0.73143-0.09302,1.00571-0.09302c6.4-0.18605,9.78286-3.25581,11.06286-4.37209
	c1.09714,1.67442,2.01143,3.72093,2.37714,4.74419l0,0c0,0,1.46286,4.27907,2.01143,8.27907L14.99429,18.7907z M0,15.62791
	C0,20.55814,2.19429,23.90697,5.66857,28h14.72h4.20572h4.93714C31.36,26.97674,32,24.37209,32,21.86046l-17.09714-1.02326h-0.09143
	c-7.77143,0-8.04572-4-8.13714-5.39535v0.09302v-0.09302c0.73143-6.88372,5.66857-7.16279,8.41143-7.34884
	C15.45143,8.09302,15.81714,8,16.09143,8h0.09143c5.85143-0.09302,8.86857-2.32558,9.78286-3.25581
	C23.22286,1.86046,19.38286,0,15.08571,0C6.76571,0,0,7.16279,0,15.62791z"/>
</svg>
