<?xml version="1.0" encoding="utf-8"?>
<!-- Generator: Adobe Illustrator 21.0.0, SVG Export Plug-In . SVG Version: 6.00 Build 0)  -->
<svg version="1.1" id="pesapallo" xmlns="http://www.w3.org/2000/svg" xmlns:xlink="http://www.w3.org/1999/xlink" x="0px" y="0px"
	 viewBox="0 0 32 32" style="enable-background:new 0 0 32 32;" xml:space="preserve">
<path d="M22.21714,16c0,4.84571,1.64571,9.23429,4.02286,12.34286C23.40571,30.62857,19.93143,32,16,32
	s-7.40571-1.37143-10.24-3.65714C8.32,25.23429,9.78286,20.84571,9.78286,16S8.22857,6.76571,5.76,3.65714
	C8.59429,1.37143,12.06857,0,16,0s7.40571,1.37143,10.24,3.56571C23.77143,6.67429,22.21714,11.06286,22.21714,16z
	 M31.81714,13.71429c-0.45714-3.29143-2.01143-6.30857-4.20572-8.68571c-2.01143,2.56-3.2,6.21714-3.38286,10.05714
	C25.32571,15.36,28.98286,16.09143,31.81714,13.71429z M26.69714,17.28c-1.00571,0-1.92-0.09143-2.46857-0.27428
	c0.18286,3.93143,1.46286,7.31429,3.38286,9.78286C30.35429,23.86286,32,20.11429,32,15.81714v-0.09143
	C30.17143,17.00571,28.34286,17.28,26.69714,17.28z M4.38857,5.02857C1.64571,7.95429,0,11.70286,0,16
	c0,4.20572,1.73714,8.13714,4.38857,10.97143C6.49143,24.22857,7.77143,20.38857,7.77143,16S6.49143,7.77143,4.38857,5.02857z"/>
</svg>
