<?xml version="1.0" encoding="utf-8"?>
<!-- Generator: Adobe Illustrator 21.0.0, SVG Export Plug-In . SVG Version: 6.00 Build 0)  -->
<svg version="1.1" id="rugby-union" xmlns="http://www.w3.org/2000/svg" xmlns:xlink="http://www.w3.org/1999/xlink" x="0px"
	 y="0px" viewBox="0 0 32 32" style="enable-background:new 0 0 32 32;" xml:space="preserve">
<path fill="#1a4bda"  d="M31.94189,6.11566c-0.08752-1.61511-0.47998-2.8717-1.17328-3.86255
	c-4.53522,1.60803-8.83093,3.8949-12.79059,6.8645l-0.79901-0.80804c3.77252-2.98175,8.06726-5.26862,12.51489-6.97668
	c-0.89856-0.71918-2.10205-1.07977-3.5058-1.26361c-4.78174-0.49091-12.46057,1.58179-18.50214,7.6413
	C1.8446,13.59332-0.31433,20.9397,0.03638,25.88708c0.09357,1.52118,0.48047,2.87164,0.99719,3.66254
	c1.99945-4.79889,4.63837-9.27356,7.90619-13.23511l0.79901,0.80804c-3.26788,3.96155-5.90729,8.43622-7.91833,13.42407
	c0.89258,0.81409,2.27869,1.27972,4.2525,1.40503c4.88135,0.40302,12.46655-1.67578,18.31396-7.65247
	C30.3158,18.51648,32.38666,11.06909,31.94189,6.11566z M15.00513,16.13452c-1.35706,1.55194-3.04144,1.0907-4.58978-0.36627
	c-1.54828-1.45697-1.89014-3.07043-0.43317-4.61871l4.15295-4.15247l1.64099,1.66046l-4.26373,4.44867
	c-0.42145,0.58514-0.43951,1.08478,0.04205,1.60254c0.58514,0.42145,1.07758,0.6394,1.69891,0.06152l4.26373-4.44867
	l1.64099,1.66046L15.00513,16.13452z"/>
</svg>