<?xml version="1.0" encoding="utf-8"?>
<!-- Generator: Adobe Illustrator 21.0.0, SVG Export Plug-In . SVG Version: 6.00 Build 0)  -->
<svg version="1.1" id="rugby" xmlns="http://www.w3.org/2000/svg" xmlns:xlink="http://www.w3.org/1999/xlink" x="0px" y="0px"
	 viewBox="0 0 32 32" style="enable-background:new 0 0 32 32;" xml:space="preserve"><path d="M1,29.48523c-0.49872-0.79773-0.87225-2.1123-0.96362-3.59814 C-0.31433,20.9397,1.8446,13.59332,7.68597,7.71057c6.04156-6.05951,13.7204-8.1322,18.50214-7.6413 c1.40375,0.18384,2.60724,0.54443,3.5058,1.26361c-3.05841,1.17456-6.03973,2.63049-8.83344,4.39014 c-0.09961,0.06091-0.19647,0.12463-0.29541,0.1861c-0.25171,0.16132-0.50256,0.32355-0.75092,0.48999 c-4.13892,2.68372-7.7041,5.92908-10.87054,9.91925l-0.00385-0.00385C6.04987,19.81787,3.65387,23.72369,1.755,27.89893 C1.50018,28.4151,1.25061,28.95221,1,29.48523z M31.94189,6.11566c-0.08704-1.60571-0.47675-2.8559-1.16248-3.84399 C17.13538,7.41858,8.71509,15.63947,1.82288,30.54834c0.89258,0.81281,2.27783,1.27814,4.25006,1.40332 c4.88135,0.40302,12.46655-1.67578,18.31396-7.65247C30.3158,18.51648,32.38666,11.06909,31.94189,6.11566z"></path></svg>