<?xml version="1.0" encoding="utf-8"?>
<!-- Generator: Adobe Illustrator 21.0.0, SVG Export Plug-In . SVG Version: 6.00 Build 0)  -->
<svg version="1.1" id="rugby-league" xmlns="http://www.w3.org/2000/svg" xmlns:xlink="http://www.w3.org/1999/xlink" x="0px"
	 y="0px" viewBox="0 0 32 32" style="enable-background:new 0 0 32 32;" xml:space="preserve">
<path fill="#1a4bda" d="M31.94192,6.11567c-0.08754-1.61513-0.47999-2.87167-1.1733-3.86257
	c-4.53522,1.60806-8.83096,3.89489-12.7906,6.86454l-0.79897-0.80807c3.77248-2.98177,8.0672-5.26861,12.51488-6.97666
	c-0.89859-0.71918-2.10208-1.07978-3.50582-1.26362C21.40635-0.4216,13.72757,1.65109,7.68597,7.7106
	c-5.84135,5.88274-8.00029,13.22909-7.64961,18.17649c0.09358,1.52119,0.48049,2.87167,0.99721,3.66257
	c1.99944-4.79892,4.63837-9.2736,7.9062-13.23516l0.79897,0.80807c-3.26784,3.96156-5.90726,8.43624-7.91828,13.42404
	c0.89255,0.81413,2.27868,1.27978,4.25246,1.40503c4.88138,0.40302,12.46658-1.67573,18.31397-7.65241
	C30.3158,18.5165,32.38669,11.06913,31.94192,6.11567z M15.16702,16.32865l-2.33956,2.6939l-4.4507-4.25953l6.75806-6.96151
	l2.13177,2.12421l-4.33146,4.36761L15.16702,16.32865z"/>
</svg>
