<?xml version="1.0" encoding="utf-8"?>
<!-- Generator: Adobe Illustrator 21.0.0, SVG Export Plug-In . SVG Version: 6.00 Build 0)  -->
<svg version="1.1" id="snooker" xmlns="http://www.w3.org/2000/svg" xmlns:xlink="http://www.w3.org/1999/xlink" x="0px" y="0px"
	 viewBox="0 0 32 32" style="enable-background:new 0 0 32 32;" xml:space="preserve">
<path fill="#e14521" d="M31.66988,28.26162c-0.45728-1.11028-1.09748-2.11962-1.55477-3.2299
	c-4.0241-7.87288-7.95675-15.84669-11.98086-23.61864C17.67697,0.50467,17.03677,0,16.1222,0s-1.46331,0.50467-2.01205,1.41308
	C8.70108,11.80017,4.17394,20.713,0.3916,28.05975c-1.09748,2.11962,0.27437,4.03737,2.10351,3.93644
	c4.48139-0.10093,8.96278,0,13.53563,0s9.1457,0,13.71854,0C31.48697,31.99619,32.58445,29.9775,31.66988,28.26162z
	 M16.03074,5.76179c1.9206,0,3.47536,1.55477,3.47536,3.47536s-1.55477,3.56682-3.47536,3.56682s-3.47537-1.55477-3.47537-3.47537
	C12.55538,7.2251,14.11015,5.76179,16.03074,5.76179z M7.89107,28.43106c-1.9206,0-3.47537-1.55477-3.47537-3.47536
	s1.55477-3.47536,3.47537-3.47536s3.47536,1.55477,3.47536,3.47536C11.27498,26.96775,9.81167,28.43106,7.89107,28.43106z
	 M8.53127,17.18788c0-1.9206,1.55477-3.47536,3.47536-3.47536s3.47536,1.55477,3.47536,3.47536s-1.55477,3.47536-3.47537,3.47536
	C9.99458,20.57179,8.53127,19.10848,8.53127,17.18788z M16.03074,28.43106c-1.9206,0-3.47537-1.55477-3.47537-3.47536
	s1.55477-3.47536,3.47537-3.47536s3.47536,1.55477,3.47536,3.47536C19.50611,26.96775,17.95134,28.43106,16.03074,28.43106z
	 M16.57948,17.18788c0-1.9206,1.55477-3.47536,3.47536-3.47536s3.47536,1.55477,3.47536,3.47536s-1.55477,3.47536-3.38391,3.47536
	S16.57948,19.10848,16.57948,17.18788z M24.07895,28.43106c-1.9206,0-3.47536-1.55477-3.47536-3.47536
	s1.55477-3.47536,3.47536-3.47536s3.47536,1.55477,3.47536,3.47536C27.64578,26.96775,25.99955,28.43106,24.07895,28.43106z"/>
</svg>
