<?xml version="1.0" encoding="utf-8"?>
<!-- Generator: Adobe Illustrator 21.0.0, SVG Export Plug-In . SVG Version: 6.00 Build 0)  -->
<svg version="1.1" id="table-tennis" xmlns="http://www.w3.org/2000/svg" xmlns:xlink="http://www.w3.org/1999/xlink" x="0px"
	 y="0px" viewBox="0 0 32 32" style="enable-background:new 0 0 32 32;" xml:space="preserve">
<path fill="#e14521"  d="M7.73364,15.58878l8.42006,8.42874c-0.09152,0-0.18304-0.09162-0.27457-0.09162
	c-2.28806-0.91617-4.02699-0.5497-5.76591,1.28263c-1.92197,2.01557-3.6609,3.93952-5.58287,5.95509
	c-1.00675,1.0994-1.37284,1.0994-2.37958,0.09162c-0.45761-0.45808-1.00675-1.00778-1.46436-1.46587
	c-0.91522-0.91617-0.91522-1.37425,0-2.1988c1.83045-1.83233,3.84394-3.66467,5.76591-5.497
	c2.01349-1.92395,2.37958-3.66467,1.37284-6.13832C7.73364,15.95524,7.73364,15.86363,7.73364,15.58878z M31.16338,7.34327
	c-1.46436-3.8479-5.67439-7.42096-10.43355-7.32934c-1.46436-0.09162-3.02024,0.27485-4.39308,0.91617
	c-2.4711,1.00778-4.39308,2.93174-6.132,4.9473c-1.46436,1.83233-2.74567,3.8479-3.02024,6.22994l12.6301,12.64311
	c0.73218-0.09162,1.37284-0.27485,2.10501-0.45808c0.45761-0.18324,1.00675-0.36647,1.37284-0.73293
	c-0.91522-0.45808-1.37284-1.46587-1.37284-2.47365c0-1.6491,1.37284-2.93174,3.02024-3.02335
	c1.28131,0,2.47111,1.00779,2.92872,2.10719c0.18305-0.18324,0.36609-0.36647,0.73218-0.73293
	c1.83045-1.92395,2.92872-4.21437,3.29481-6.68802C32.17013,10.82471,31.89556,9.08399,31.16338,7.34327z"/>
</svg>
