<?xml version="1.0" encoding="utf-8"?>
<!-- Generator: Adobe Illustrator 21.0.0, SVG Export Plug-In . SVG Version: 6.00 Build 0)  -->
<svg version="1.1" id="tennis" xmlns="http://www.w3.org/2000/svg" xmlns:xlink="http://www.w3.org/1999/xlink" x="0px" y="0px"
	 viewBox="0 0 32 32" style="enable-background:new 0 0 32 32;" xml:space="preserve">
<path fill="#af814c"  d="M16.32092,0.73143c0-0.27429,0-0.54857,0-0.73143c4.03438,0.09143,7.88539,1.55429,11.00286,4.66286
	C30.44126,7.68,31.90831,11.61143,32,15.63428c-0.27507,0-0.55014,0-0.73352,0c-2.47565,0-4.8596,1.00572-6.69341,2.83428
	l-2.84241,2.83429c-1.37536,1.46286-3.39255,2.28572-5.50143,2.28572c-2.10888,0-4.03438-0.82286-5.50143-2.28572
	C9.26075,19.93143,8.43553,17.92,8.43553,15.81714s0.82521-4.02286,2.29226-5.48571l2.84241-2.83429
	C15.40401,5.66857,16.22923,3.29143,16.32092,0.73143z M25.76504,19.65714l-2.84241,2.92571
	c-1.83381,1.82857-4.21776,2.83429-6.69341,2.83429s-4.95129-1.00571-6.69341-2.83429s-2.84241-4.20572-2.84241-6.67428
	s1.10029-4.93714,2.84241-6.76571L12.37822,6.4c1.46705-1.46286,2.29226-3.38286,2.29226-5.48571c0-0.18286,0-0.36571,0-0.73143
	c-3.57593,0.27429-7.24355,1.92-9.99427,4.57143c-6.23496,6.21714-6.23496,16.36571,0,22.58286s16.41261,6.21714,22.64756,0
	c2.84241-2.83429,4.30945-6.30857,4.58453-9.96571c-0.18338,0-0.36676,0-0.64183,0
	C29.15759,17.37143,27.32378,18.19428,25.76504,19.65714z"/>
</svg>
