<?xml version="1.0" encoding="utf-8"?>
<!-- Generator: Adobe Illustrator 21.0.0, SVG Export Plug-In . SVG Version: 6.00 Build 0)  -->
<svg version="1.1" id="volleyball" xmlns="http://www.w3.org/2000/svg" xmlns:xlink="http://www.w3.org/1999/xlink" x="0px" y="0px"
	 viewBox="0 0 32 32" style="enable-background:new 0 0 32 32;" xml:space="preserve">
<path fill="#33b153" d="M13.68225,18.43587c-1.57556-1.58725-2.79822-3.29218-3.59906-4.86222
	C13.28943,10.22623,15.23572,5.78003,16.01288,0c2.14374,0.00171,4.18555,0.43116,6.05353,1.19766
	C21.46246,9.05256,18.63336,14.83674,13.68225,18.43587z M14.81354,19.49479c1.84491,1.60959,4.08527,3.00788,6.67877,3.89474
	c3.94-2.708,8.41321-7.65336,7.9787-16.0007c-1.48218-2.31389-3.53516-4.22366-5.97131-5.51946
	C22.77899,9.77785,19.87073,15.70815,14.81354,19.49479z M30.92749,10.27664c-0.59326,6.90841-4.52594,11.25158-7.60468,13.63102
	c1.9585,0.45173,4.08685,0.59962,6.36694,0.3429C31.14642,21.83908,32,19.02243,32,15.99966
	C32,13.98021,31.61017,12.05579,30.92749,10.27664z M9.35803,12.14479c1.48859-1.65171,2.66669-3.59071,3.54639-5.84369
	C8.06396,5.95264,4.30035,7.37363,0.85614,10.86784C0.30963,12.48055,0,14.20232,0,15.99966
	c0,0.93764,0.09705,1.85099,0.25177,2.74438c0.48737-1.05849,1.17804-2.30657,2.10571-3.4347
	c-0.00281-0.01453-0.00775-0.02918-0.0105-0.0437l0.05688-0.01086C3.9892,13.34946,6.25604,11.8122,9.35803,12.14479z
	 M27.48077,25.89672c-9.82843,0-16.65601-7.07089-19.03546-12.28969c-1.84106,0.03571-3.30829,0.92342-4.44373,2.10472
	c2.27759,9.65444,11.98602,14.05901,18.65576,14.82398c2.3335-1.0707,4.36194-2.68115,5.92859-4.67869
	C28.21478,25.87689,27.84344,25.89672,27.48077,25.89672z M8.44952,25.84301c-2.63324-2.47808-4.60095-5.56494-5.60358-8.6889
	c-1.09229,1.61173-1.71649,3.31458-1.95911,4.06124C3.05176,27.48758,8.99225,32,16,32c1.24457,0,2.45044-0.15619,3.61334-0.42506
	C15.31689,30.65622,11.50421,28.71825,8.44952,25.84301z M13.42731,4.82133c0.46094-1.46121,0.81549-3.03894,1.06036-4.74564
	C9.39972,0.55323,5.01715,3.41731,2.44153,7.53275C5.62024,5.28313,9.13739,4.42972,13.42731,4.82133z"/>
</svg>
