<?xml version="1.0" encoding="utf-8"?>
<!-- Generator: Adobe Illustrator 21.0.0, SVG Export Plug-In . SVG Version: 6.00 Build 0)  -->
<svg version="1.1" id="waterpolo" xmlns="http://www.w3.org/2000/svg" xmlns:xlink="http://www.w3.org/1999/xlink" x="0px" y="0px"
	 viewBox="0 0 32 32" style="enable-background:new 0 0 32 32;" xml:space="preserve"><path d="M16,0C7.16345,0,0,7.16345,0,16s7.16345,16,16,16s16-7.16345,16-16S24.83655,0,16,0z M25.69855,4.56805L25.47266,6.375h-6.64178l1.67957-4.68237C22.43854,2.29993,24.19391,3.29022,25.69855,4.56805z M16,1 c1.2215,0,2.40259,0.16199,3.53937,0.4375L17.76831,6.375h-3.47412l-1.77631-4.95221C13.63721,1.15625,14.79907,1,16,1z M11.54498,1.67297L13.23163,6.375H6.92859L6.66553,4.27051C8.10254,3.12537,9.74823,2.23102,11.54498,1.67297z M25.79858,7.375 c1.50232,1.88947,2.44708,3.85242,2.82166,5.9043c-8.18579-2.54187-16.51019-2.57172-24.76434-0.09149 c0.4884-1.8631,1.38275-3.79877,2.67169-5.81281H25.79858z M28.7666,14.36859c0.08441,0.99677,0.03528,2.01501-0.13843,3.05487 c-8.32208,2.64941-16.7934,2.64081-25.18549-0.02893c-0.07562-1.00793-0.02319-2.0365,0.16437-3.08856 C11.99133,11.67365,20.45355,11.69226,28.7666,14.36859z M5.74994,26.9306C2.83282,24.19397,1,20.31543,1,16 c0-4.31879,1.83569-8.19995,4.75677-10.93689l0.17413,1.39294c-4.65088,7.04108-4.65723,13.43024-0.02399,19.00238L5.74994,26.9306z M3.57721,18.47827c4.16846,1.28131,8.35474,1.92896,12.53363,1.92896c4.11035,0,8.21283-0.62769,12.28198-1.86755 c-0.4989,1.9856-1.45477,4.05249-2.86646,6.21033H6.61896C4.96857,22.74811,3.95282,20.66327,3.57721,18.47827z M6.6698,27.73267 L6.88123,25.75h6.6839l-1.67377,4.66614C9.96411,29.86774,8.19641,28.9483,6.6698,27.73267z M16,31 c-1.07611,0-2.12384-0.11835-3.13574-0.33374L14.62769,25.75h3.47363l1.70184,4.74463C18.58649,30.81317,17.31653,31,16,31z M20.76514,30.21411L19.16388,25.75h6.3457l0.18018,1.68982C24.25476,28.65656,22.5882,29.60303,20.76514,30.21411z M26.60632,26.60681l-0.15454-1.44946c4.42963-6.86206,4.4295-13.1004,0.00098-18.56073l0.15076-1.20605 C29.3197,8.10529,31,11.85632,31,16C31,20.14227,29.32098,23.89233,26.60632,26.60681z"></path></svg>