<?xml version="1.0" encoding="utf-8"?>
<!-- Generator: Adobe Illustrator 21.0.0, SVG Export Plug-In . SVG Version: 6.00 Build 0)  -->
<svg version="1.1" id="winter_sports" xmlns="http://www.w3.org/2000/svg" xmlns:xlink="http://www.w3.org/1999/xlink" x="0px" y="0px"
	 viewBox="0 0 32 32" style="enable-background:new 0 0 32 32;" xml:space="preserve"><path d="M11.69717,23.3907c0-0.51363,0-1.23272,0-1.84908c0-0.92454-0.20607-1.02727-1.03035-0.51363 c-0.30911,0.20545-0.51518,0.4109-0.92732,0.61636c-0.51518,0.30818-0.92732,0.82181-0.92732,1.43817c0,0.92454,0,1.84908,0,2.67089 c0,0.71909-0.30911,1.12999-0.92732,1.43817c-0.82428,0.41091-1.64856-0.10273-1.85463-1.23272c0-0.41091,0-0.92454,0-1.33544 c0-0.71909-0.20607-0.82181-0.92732-0.41091c-0.92732,0.41091-1.64856,1.02727-2.57588,1.43817 c-0.41214,0.20545-1.13339,0.20545-1.54553,0c-0.30911-0.10273-0.82428-0.71909-0.92732-1.12999 c-0.20607-0.51363,0.20607-1.12999,0.72125-1.43817c0.92732-0.41091,1.85463-1.02727,2.57588-1.43817 c0.20607-0.10273,0.51518-0.30818,0.51518-0.51363s-0.30911-0.41091-0.51518-0.51363 c-0.30911-0.20545-0.72125-0.30818-0.92732-0.41091c-0.72125-0.41091-1.03035-1.12999-0.72125-1.84908 c0.30911-0.71909,1.23642-1.02727,1.95767-0.71909c0.82428,0.30818,1.44249,0.82181,2.16374,1.23272 c0.82428,0.51363,1.44249,0.51363,2.26677,0c0.41214-0.30818,0.82428-0.51363,1.23642-0.71909 c0.41214-0.20545,0.30911-0.41091,0-0.71909c-0.41214-0.20545-1.03035-0.51363-1.44249-0.92454 c-0.51518-0.30818-0.51518-0.51363,0-0.92454c0.30911-0.20545,0.82428-0.41091,1.13339-0.82181 c0.30911-0.30818,0.41214-0.51363,0-0.92454c-0.10303,0-0.10303-0.10273-0.20607-0.10273 c-1.23642-1.02727-2.36981-1.02727-3.60623,0c-0.41214,0.30818-1.03035,0.71909-1.54553,0.92454 c-0.41214,0.20545-1.13339,0-1.54553-0.51363C1.80579,13.63168,1.90883,12.70714,2.424,12.1935 c0.30911-0.20545,0.72125-0.41091,1.13339-0.71909c0.82428-0.41091,0.82428-0.71909,0-1.12999 C2.73311,9.93352,1.90883,9.62534,1.08454,9.11171C0.15723,8.7008-0.04884,7.87899,0.26026,7.05717 c0.51518-0.82181,1.54553-1.02727,2.26678-0.51363C3.45435,6.95445,4.1756,7.46808,4.99988,7.98171 C5.72113,8.28989,5.9272,8.18717,6.03024,7.46808c0-0.41091,0-0.92454,0-1.23272c0-0.82181,0.41214-1.33545,1.13339-1.33545 s1.44249,0.51363,1.44249,1.33545c0.10303,0.82181,0,1.64363,0,2.46544c0,1.33545,1.03035,2.56816,2.36981,2.67089 c0.10304,0,0.41214-0.30818,0.51518-0.51363c0.10304-0.41091,0-0.92454,0-1.33545c0-0.82181,0.20607-0.92454,0.92732-0.51363 c0.41214,0.20545,0.82428,0.41091,1.23642,0.71909c0.41214,0.20545,0.82428,0.10273,0.82428-0.41091s0.10303-1.12999,0-1.64363 c-0.10304-0.41091-0.41214-0.92454-0.82428-1.12999C12.9336,6.02991,12.10931,5.619,11.38807,5.20809 c-0.82428-0.41091-1.03035-1.23272-0.72125-2.05453c0.41214-0.71909,1.13339-0.92454,1.95767-0.41091 c0.30911,0.20545,0.72125,0.41091,1.03035,0.51363c0.61821,0.10273,0.82428-0.10273,0.82428-0.61636c0-0.92454,0,0.14493,0-0.67688 c0-0.20545,0-0.41091,0-0.71909c0.20607-0.71909,1.03035-1.33545,1.54553-1.23272c0.72125,0.10273,1.33946,0.82181,1.33946,1.5409 c0,1.02727,0,0.06052,0,1.08779c0,0.71909,0.20607,0.82181,0.92732,0.51363c0.41214-0.20545,0.82428-0.41091,1.13339-0.71909 c0.72125-0.30818,1.44249-0.10273,1.85463,0.41091c0.41214,0.71909,0.20607,1.43817-0.41214,1.95181 c-0.51517,0.41091-1.23642,0.92454-1.95767,1.23272c-0.92732,0.51363-1.33946,1.23272-1.23642,2.25999 c0.10303,0.41091,0.10303,0.92454,0.20607,1.33545c0.41214-0.10273,0.92732-0.30818,1.33946-0.41091 c0.3091-0.10273,0.72125-0.20545,1.13339-0.30818c0.10303,0.30818,0.10303,0.71909,0.20607,1.02727c0,0,0,0,0,0.10273 c0,1.95181,0,1.95181,1.64857,1.02727c0.92732-0.41091,1.23642-1.02727,1.23642-2.05453c0-0.92454,0-1.64363,0-2.56817 c0-1.02727,0.41214-1.43817,1.44249-1.43817c0.92732,0,1.33946,0.41091,1.33946,1.43817c0,0.30818,0,0.82181,0,1.12999 c0,0.71909,0.3091,0.92454,0.92732,0.51363c0.92732-0.41091,1.85463-1.02727,2.67892-1.43817 c0.51518-0.30818,1.13339-0.20545,1.54553,0.10273s0.82428,0.92454,0.51518,1.33545 c-0.3091,0.41091-0.51518,0.92454-0.92732,1.23272c-0.82428,0.51363-1.54553,0.92454-2.36981,1.33545 c-0.51517,0.30818-0.51517,0.71909,0,1.02727c0.3091,0.20545,0.72125,0.30818,1.03035,0.51363 c0.82428,0.41091,1.03035,1.33545,0.51517,2.05453c-0.3091,0.71909-1.13339,0.82181-1.95767,0.30818 c-0.82428-0.41091-1.54553-1.02727-2.36981-1.43817c-0.51517-0.30818-1.03035-0.30818-1.54553,0 c-0.41214,0.20545-0.92732,0.51363-1.33946,0.82181s-0.41214,0.71909,0,1.02727c0.3091,0.20545,0.82428,0.51363,1.13339,0.82181 c0.41214,0.30818,0.41214,0.51363,0,0.92454c-0.41214,0.20545-0.82428,0.41091-1.23642,0.71909 c-0.41214,0.30818-0.41214,0.71909,0,0.92454c0.41214,0.30818,1.03035,0.71909,1.54553,0.82181 c0.3091,0.10273,0.92732,0.10273,1.23642-0.10273c0.82428-0.30818,1.54553-0.82181,2.26678-1.23272 c0.92732-0.51363,1.54553-0.41091,2.06071,0.30818c0.41214,0.82181,0.20607,1.43817-0.72125,2.05453 c-0.20607,0.10273-0.41214,0.20545-0.72125,0.41091c-0.51518,0.30818-0.51518,0.71909,0,1.12999 c0.72125,0.41091,1.44249,0.92454,2.16374,1.33545c0.92732,0.51363,1.23642,1.5409,0.82428,2.25998 c-0.41214,0.71909-1.44249,0.92454-2.36981,0.41091c-0.72125-0.30818-1.33946-0.82181-2.06071-1.23272 c-0.82428-0.41091-1.13339-0.30818-1.13339,0.71909c0,0.30818,0,0.71909,0,1.02727c0,0.82181-0.51518,1.23272-1.23642,1.33545 c-0.82428,0-1.33946-0.41091-1.33946-1.23272c-0.10303-0.82181-0.10303-1.5409,0-2.36271 c0.10304-1.02727-0.20607-1.84908-1.33946-2.25998c-0.3091-0.10273-0.51518-0.30818-0.92732-0.41091 c-0.51518-0.30818-0.92732-0.20545-0.92732,0.51363c0,0.41091,0,0.92454,0,1.23272c0,0.51363-0.3091,0.71909-0.82428,0.41091 c-0.41214-0.20545-0.82428-0.51363-1.23642-0.82181c-0.51517-0.30818-0.82428-0.10273-0.92732,0.41091 c0,0.30818,0,0.82181,0,1.12999c0,0.82181,0.3091,1.33545,0.92732,1.64363c0.72125,0.41091,1.44249,0.82181,2.16374,1.23272 c0.82428,0.41091,1.03035,1.33545,0.72125,2.05453c-0.3091,0.71909-1.13339,0.82181-2.06071,0.30818 c-0.3091-0.20545-0.72125-0.41091-1.03035-0.51363c-0.51518-0.30818-0.82428-0.10273-0.82428,0.41091c0,1.02727,0,0.06052,0,0.88233 c0,0.41091-0.20607,0.92454-0.41214,1.23272c-0.30911,0.41091-0.82428,0.71909-1.33946,0.41091 c-0.72125-0.30818-1.13339-0.82181-1.13339-1.5409c0-1.02727,0-0.06052,0-0.88234s-0.20607-0.92454-0.92732-0.51363 c-0.30911,0.20545-0.72125,0.41091-1.13339,0.51363c-0.82428,0.30818-1.44249,0.10273-1.85463-0.51363 c-0.30911-0.71909-0.10304-1.43817,0.51518-1.84908c0.72125-0.41091,1.44249-0.82181,2.26677-1.23272 c1.03035-0.51363,1.44249-2.15726,1.03035-3.18452c-0.20607-0.41091-0.51518-0.30818-0.82428-0.10273 c-0.51518,0.30818-1.13339,0.71909-1.64856,1.12999C11.90324,23.49343,11.80021,23.3907,11.69717,23.3907z"></path></svg>